<?xml version="1.0" encoding="UTF-8"?>
<svg version="1.1" xmlns="http://www.w3.org/2000/svg" width="512" height="512">
<path d="M0 0 C7.12974922 4.20317986 12.47273231 11.17120408 17.8125 17.375 C18.90498047 18.63763672 18.90498047 18.63763672 20.01953125 19.92578125 C20.61121094 20.61027344 21.20289063 21.29476563 21.8125 22 C26.34303588 27.40149716 26.34303588 27.40149716 32.75390625 29.80078125 C38.42355696 29.67222779 43.31054148 26.58146502 48.25 24.0625 C70.90197104 12.72920268 70.90197104 12.72920268 83.40234375 16.06640625 C93.09173347 20.02497743 97.67139423 26.01465918 101.8125 35.375 C103.32211338 39.29709295 104.6750462 43.26222483 106 47.25 C106.67855393 49.26904937 107.35945052 51.28731331 108.04296875 53.3046875 C108.33582764 54.18366699 108.62868652 55.06264648 108.93041992 55.96826172 C110.70637402 60.81391783 111.98858632 63.12615391 116.8125 65.375 C119.41742254 65.77584408 119.41742254 65.77584408 122.25 65.625 C123.37921875 65.60308594 124.5084375 65.58117187 125.671875 65.55859375 C128.85277229 65.43655832 132.02655064 65.23964961 135.203125 65.03515625 C136.15775635 64.97875977 137.1123877 64.92236328 138.09594727 64.86425781 C139.98817123 64.74908588 141.87950059 64.61771683 143.76928711 64.46777344 C151.55688482 63.9881051 158.22536056 65.02528463 164.8359375 69.35546875 C171.31450836 75.43585502 175.31924229 80.54404428 176.8125 89.375 C176.82723922 90.99002056 176.78490761 92.60637097 176.69140625 94.21875 C176.64274414 95.12955322 176.59408203 96.04035645 176.54394531 96.97875977 C176.48819336 97.93451904 176.43244141 98.89027832 176.375 99.875 C176.27558321 101.85277687 176.17792005 103.83064269 176.08203125 105.80859375 C176.01169678 107.24114502 176.01169678 107.24114502 175.93994141 108.70263672 C175.77719012 112.11542528 175.63701797 115.52143925 175.5625 118.9375 C175.53671875 119.88753906 175.5109375 120.83757812 175.484375 121.81640625 C175.89855843 125.04605086 176.81781139 126.80667545 178.8125 129.375 C181.04048423 130.80809032 181.04048423 130.80809032 183.75 131.75 C184.80574219 132.16121094 185.86148437 132.57242188 186.94921875 132.99609375 C189.87256402 134.06090914 192.81770737 135.05233754 195.76953125 136.03515625 C197.07772827 136.47625732 197.07772827 136.47625732 198.41235352 136.92626953 C200.13836132 137.50346053 201.86921964 138.06640562 203.60522461 138.61279297 C211.48973296 141.22980522 218.1220767 145.03933409 222.25 152.5 C222.72308594 153.32757813 223.19617188 154.15515625 223.68359375 155.0078125 C226.79717647 161.53663994 226.97493781 169.28095073 225.01171875 176.1953125 C223.10798877 180.89248819 220.82450979 185.36500297 218.4765625 189.8515625 C217.86542603 191.03371338 217.86542603 191.03371338 217.24194336 192.23974609 C216.43167219 193.79593821 215.60501287 195.34373814 214.76000977 196.88134766 C212.07094422 201.99790756 211.12697802 205.58478758 211.8125 211.375 C212.85353633 213.61314043 212.85353633 213.61314043 214.625 215.25 C215.26179688 215.90613281 215.89859375 216.56226563 216.5546875 217.23828125 C224.14179824 224.44871302 224.14179824 224.44871302 232.12109375 231.21484375 C238.65709491 236.46588438 242.24252051 241.7731164 243.2890625 250.22265625 C243.74647345 258.43557227 243.08510876 265.76297854 237.8125 272.375 C231.49860613 279.15878626 224.26310897 285.04373387 216.8359375 290.55859375 C213.3036701 293.72945155 211.99317964 296.21712342 211.2578125 300.9296875 C211.5015066 307.03924194 214.86211034 312.23068061 217.6875 317.5 C218.79253536 319.60495134 219.89421185 321.7116701 220.9921875 323.8203125 C221.48444824 324.74344238 221.97670898 325.66657227 222.48388672 326.61767578 C226.16714603 334.26169098 227.19688687 341.82958668 225.125 350.12890625 C221.82091275 359.14631104 217.20501372 363.97309245 208.66113281 368.11499023 C203.88130172 370.22920932 198.96082495 371.86683317 194 373.5 C191.99169945 374.16387982 189.98511578 374.83298083 187.98046875 375.5078125 C187.10672607 375.79543457 186.2329834 376.08305664 185.33276367 376.37939453 C181.86881771 377.74779244 178.68995749 379.12864147 176.51171875 382.22265625 C175.65119384 384.87153459 175.58425413 387.02326013 175.625 389.8125 C175.63917969 390.94945312 175.65335937 392.08640625 175.66796875 393.2578125 C175.7580984 396.38178459 175.92736005 399.49753081 176.11328125 402.6171875 C176.16572998 403.5357251 176.21817871 404.4542627 176.2722168 405.40063477 C176.38024898 407.2221818 176.49972373 409.04309581 176.63208008 410.86303711 C177.13146886 419.11499008 175.99009572 426.60882377 170.8125 433.375 C165.09265376 439.80982702 159.46590451 443.56126242 150.8125 444.375 C144.94203179 444.3982545 139.09179822 443.94822358 133.23925781 443.53466797 C129.78130896 443.30715302 126.3403896 443.18701223 122.875 443.125 C121.81410156 443.09921875 120.75320313 443.0734375 119.66015625 443.046875 C116.25762867 443.43893579 114.49586542 444.25509514 111.8125 446.375 C110.37940968 448.60298423 110.37940968 448.60298423 109.4375 451.3125 C109.02628906 452.36824219 108.61507813 453.42398437 108.19140625 454.51171875 C107.12659086 457.43506402 106.13516246 460.38020737 105.15234375 463.33203125 C104.85827637 464.2041626 104.56420898 465.07629395 104.26123047 465.97485352 C103.68403947 467.70086132 103.12109438 469.43171964 102.57470703 471.16772461 C99.95769478 479.05223296 96.14816591 485.6845767 88.6875 489.8125 C87.85992187 490.28558594 87.03234375 490.75867188 86.1796875 491.24609375 C79.65086006 494.35967647 71.90654927 494.53743781 64.9921875 492.57421875 C60.29501181 490.67048877 55.82249703 488.38700979 51.3359375 486.0390625 C50.15378662 485.42792603 50.15378662 485.42792603 48.94775391 484.80444336 C47.39156179 483.99417219 45.84376186 483.16751287 44.30615234 482.32250977 C39.17752608 479.62710261 35.61533661 478.68275289 29.8125 479.375 C25.65944945 481.17938806 23.42620122 483.76676705 20.6875 487.3125 C3.0086068 509.38912783 3.0086068 509.38912783 -9.01953125 510.8359375 C-17.23867602 511.32044674 -24.59239422 510.68199918 -31.1875 505.375 C-35.29095889 501.49283113 -39.04350466 497.30400212 -42.74121094 493.03857422 C-43.99793873 491.59304026 -45.28184413 490.17122146 -46.5703125 488.75390625 C-51.1875 483.66004555 -51.1875 483.66004555 -51.1875 481.375 C-55.483204 479.227148 -59.47316524 478.59778717 -64.1875 479.375 C-68.39613051 481.02236566 -72.33273083 483.11606242 -76.3125 485.25 C-78.41745134 486.35503536 -80.5241701 487.45671185 -82.6328125 488.5546875 C-83.55594238 489.04694824 -84.47907227 489.53920898 -85.43017578 490.04638672 C-93.07419098 493.72964603 -100.64208668 494.75938687 -108.94140625 492.6875 C-117.95881104 489.38341275 -122.78559245 484.76751372 -126.92749023 476.22363281 C-129.04170932 471.44380172 -130.67933317 466.52332495 -132.3125 461.5625 C-132.97637982 459.55419945 -133.64548083 457.54761578 -134.3203125 455.54296875 C-134.60793457 454.66922607 -134.89555664 453.7954834 -135.19189453 452.89526367 C-136.55350565 449.4484977 -137.94223936 446.26868921 -141 444.07421875 C-143.82749856 443.17042903 -146.21598224 443.14821311 -149.1875 443.1875 C-150.41726562 443.20167969 -151.64703125 443.21585937 -152.9140625 443.23046875 C-156.0388415 443.31598745 -159.15356033 443.48232315 -162.2734375 443.67578125 C-163.14871094 443.72822998 -164.02398437 443.78067871 -164.92578125 443.8347168 C-166.64533695 443.94250746 -168.36421557 444.06191544 -170.08203125 444.19458008 C-178.16039645 444.71401896 -185.58638453 443.44063861 -192.1875 438.375 C-198.94042647 432.25984992 -202.84151926 425.98626697 -203.32666016 416.71582031 C-203.26033064 413.98583706 -203.09098298 411.28460549 -202.875 408.5625 C-202.75739563 406.63031219 -202.64150326 404.6980194 -202.52734375 402.765625 C-202.46788574 401.84201172 -202.40842773 400.91839844 -202.34716797 399.96679688 C-202.1384805 396.57929514 -202.00335705 393.20607503 -201.9375 389.8125 C-201.91171875 388.86246094 -201.8859375 387.91242188 -201.859375 386.93359375 C-202.27355843 383.70394914 -203.19281139 381.94332455 -205.1875 379.375 C-207.41548423 377.94190968 -207.41548423 377.94190968 -210.125 377 C-211.18074219 376.58878906 -212.23648438 376.17757813 -213.32421875 375.75390625 C-216.24756402 374.68909086 -219.19270737 373.69766246 -222.14453125 372.71484375 C-223.0166626 372.42077637 -223.88879395 372.12670898 -224.78735352 371.82373047 C-226.51336132 371.24653947 -228.24421964 370.68359438 -229.98022461 370.13720703 C-238.55923987 367.28967526 -245.86967751 362.54204409 -250.1875 354.375 C-251.82654093 350.19659988 -252.50729207 346.60788393 -252.5625 342.125 C-252.60503906 340.57039062 -252.60503906 340.57039062 -252.6484375 338.984375 C-251.44173874 329.53531012 -246.04435358 320.94880727 -241.546875 312.69921875 C-238.71666691 307.26623 -237.38280074 303.51407661 -238.1875 297.375 C-239.99188806 293.22194945 -242.57926705 290.98870122 -246.125 288.25 C-268.20162783 270.5711068 -268.20162783 270.5711068 -269.6484375 258.54296875 C-270.13294674 250.32382398 -269.49449918 242.97010578 -264.1875 236.375 C-259.80076781 231.73821684 -255.02121737 227.53550563 -250.1875 223.375 C-249.34574219 222.64667969 -248.50398438 221.91835937 -247.63671875 221.16796875 C-246.95222656 220.57628906 -246.26773438 219.98460937 -245.5625 219.375 C-240.02065228 214.67838755 -240.02065228 214.67838755 -237.7265625 207.97265625 C-237.84814334 201.75436191 -241.19141285 196.60454468 -244.0625 191.25 C-245.16753536 189.14504866 -246.26921185 187.0383299 -247.3671875 184.9296875 C-248.10557861 183.54499268 -248.10557861 183.54499268 -248.85888672 182.13232422 C-252.5986571 174.37102934 -253.7302484 166.20413456 -251.5 157.77734375 C-247.51474074 148.0964848 -241.55669601 143.52002339 -232.1875 139.375 C-228.26540705 137.86538662 -224.30027517 136.5124538 -220.3125 135.1875 C-218.29345063 134.50894607 -216.27518669 133.82804948 -214.2578125 133.14453125 C-213.37883301 132.85167236 -212.49985352 132.55881348 -211.59423828 132.25708008 C-206.7493179 130.48139563 -204.43355348 129.19985563 -202.1875 124.375 C-201.78685207 121.73611114 -201.78685207 121.73611114 -201.9375 118.875 C-201.96070313 117.74578125 -201.98390625 116.6165625 -202.0078125 115.453125 C-202.12859445 112.35671488 -202.30713515 109.26505306 -202.4921875 106.171875 C-202.54407227 105.25728516 -202.59595703 104.34269531 -202.64941406 103.40039062 C-202.75573657 101.59099808 -202.8742919 99.78227027 -203.00683594 97.97460938 C-203.61229551 88.02401296 -201.90034666 79.98957233 -195.1875 72.375 C-186.6666675 65.00392863 -178.34997094 64.00230916 -167.5 64.75 C-165.54957517 64.85851035 -163.59905315 64.96528813 -161.6484375 65.0703125 C-160.24416504 65.15007324 -160.24416504 65.15007324 -158.81152344 65.23144531 C-155.41417246 65.41730709 -152.02696196 65.55493671 -148.625 65.625 C-147.67496094 65.65078125 -146.72492188 65.6765625 -145.74609375 65.703125 C-142.51644914 65.28894157 -140.75582455 64.36968861 -138.1875 62.375 C-136.75440968 60.14701577 -136.75440968 60.14701577 -135.8125 57.4375 C-135.40128906 56.38175781 -134.99007812 55.32601562 -134.56640625 54.23828125 C-133.50159086 51.31493598 -132.51016246 48.36979263 -131.52734375 45.41796875 C-131.23327637 44.5458374 -130.93920898 43.67370605 -130.63623047 42.77514648 C-130.05903947 41.04913868 -129.49609438 39.31828036 -128.94970703 37.58227539 C-126.10217526 29.00326013 -121.35454409 21.69282249 -113.1875 17.375 C-109.00909988 15.73595907 -105.42038393 15.05520793 -100.9375 15 C-99.90109375 14.97164062 -98.8646875 14.94328125 -97.796875 14.9140625 C-88.2131201 16.13796193 -79.28022536 21.67057038 -70.77929688 26.015625 C-65.77221119 28.4806518 -61.90328543 30.248245 -56.1875 29.375 C-54.03953609 28.31230308 -54.03953609 28.31230308 -52.375 26.5625 C-51.70984375 25.92570312 -51.0446875 25.28890625 -50.359375 24.6328125 C-45.5201505 19.60210789 -40.70061741 14.5284021 -36.34765625 9.06640625 C-27.51861014 -1.92315938 -13.23182412 -5.43951008 0 0 Z " fill="#FD9A1F" transform="translate(269.1875,1.625)"/>
<path d="M0 0 C0.7013205 0.00248749 1.40264099 0.00497498 2.12521362 0.00753784 C13.07473139 0.06743078 23.61346817 0.54326637 34.25 3.3125 C35.56025146 3.65112061 35.56025146 3.65112061 36.89697266 3.99658203 C67.93956231 12.27069383 94.04543053 27.14835281 117.25 49.3125 C118.11625 50.12589844 118.9825 50.93929687 119.875 51.77734375 C146.858338 77.79096804 166.82030823 117.58368964 168.19140625 155.2265625 C168.21120038 156.58853787 168.23070065 157.95051753 168.25 159.3125 C168.27433105 160.19131836 168.29866211 161.07013672 168.32373047 161.97558594 C169.16228485 193.15314205 161.91849428 220.87905649 147.25 248.3125 C146.76660156 249.22128906 146.76660156 249.22128906 146.2734375 250.1484375 C143.32021477 255.64671396 140.32470489 261.0103186 136.48828125 265.9453125 C131.34034725 271.84939595 131.34034725 271.84939595 129.26171875 278.9921875 C129.56529297 280.20261719 129.56529297 280.20261719 129.875 281.4375 C130.43359375 283.77734375 130.43359375 283.77734375 130.25 286.3125 C128.55309972 288.85336126 127.01910951 290.8231659 124.9375 293 C124.44523926 293.54221191 123.95297852 294.08442383 123.44580078 294.64306641 C121.75607953 296.26187546 120.39355263 297.35941851 118.25 298.3125 C115.91650391 298.2121582 115.91650391 298.2121582 113.39453125 297.78125 C109.25232312 297.1151134 107.27961824 297.40659837 103.75 299.70703125 C102.23272229 300.82324138 100.73324971 301.96395435 99.25 303.125 C97.58633729 304.33925516 95.91826414 305.54748788 94.24609375 306.75 C93.41190918 307.35457031 92.57772461 307.95914062 91.71826172 308.58203125 C79.30391806 317.28557901 65.4297109 323.15336412 51.25 328.3125 C49.59484375 328.92738281 49.59484375 328.92738281 47.90625 329.5546875 C8.40075495 342.96576345 -35.60396 337.42489912 -72.62744141 319.39208984 C-114.56519805 298.06142963 -145.61312347 260.8145959 -161.01123047 216.61230469 C-163.14057124 209.98362323 -164.57811412 203.16920764 -165.75 196.3125 C-165.92732666 195.28237793 -166.10465332 194.25225586 -166.28735352 193.19091797 C-167.67818235 184.40771319 -168.10054282 175.82297927 -168.0625 166.9375 C-168.05976578 165.91819397 -168.05976578 165.91819397 -168.05697632 164.8782959 C-168.01097388 154.672648 -167.37233478 145.22027295 -164.75 135.3125 C-164.40316648 133.81190728 -164.05960301 132.31055621 -163.71875 130.80859375 C-158.02308696 106.59272731 -146.65298075 84.8484447 -131.93579102 64.94384766 C-129.09197238 61.03147456 -128.45470576 59.13563921 -128.75 54.3125 C-128.96374268 53.6522583 -129.17748535 52.9920166 -129.39770508 52.31176758 C-129.5139624 51.65200928 -129.63021973 50.99225098 -129.75 50.3125 C-128.05365493 47.93396231 -126.46533655 46.05711938 -124.4375 44 C-123.69790039 43.15598633 -123.69790039 43.15598633 -122.94335938 42.29492188 C-121.26885291 40.57839518 -119.9047172 39.37844072 -117.75 38.3125 C-115.38134766 38.36889648 -115.38134766 38.36889648 -112.83203125 38.7890625 C-108.91180711 39.43499385 -107.01293435 39.37093669 -103.6875 37.13671875 C-102.35707092 36.11405681 -101.04509638 35.06705405 -99.75 34 C-98.27493086 32.87698664 -96.79428107 31.76127168 -95.30859375 30.65234375 C-94.55690918 30.0888623 -93.80522461 29.52538086 -93.03076172 28.94482422 C-77.58353097 17.88935593 -59.08332294 9.95815044 -40.75 5.3125 C-38.91665096 4.77088648 -37.08331685 4.22922245 -35.25 3.6875 C-23.64834539 0.60136772 -11.95714839 -0.06824714 0 0 Z " fill="#F8D070" transform="translate(255.75,87.6875)"/>
<path d="M0 0 C1.25550659 0.00290039 1.25550659 0.00290039 2.53637695 0.00585938 C11.20948245 0.06431333 19.84817578 0.54614438 28.5 1.125 C28.5 1.455 28.5 1.785 28.5 2.125 C24.045 2.62 24.045 2.62 19.5 3.125 C18.35244476 7.57301262 17.25356478 12.03182958 16.1875 16.5 C16.02427246 17.18250824 15.86104492 17.86501648 15.69287109 18.56820679 C12.71796502 31.2264542 11.34028348 43.74227188 10.8269043 56.72607422 C10.36456742 65.85771673 8.33025618 71.11515237 2.5 78.125 C0.88879881 80.60611697 -0.56286057 83.16483581 -2 85.75 C-2.56509277 86.76404907 -2.56509277 86.76404907 -3.14160156 87.79858398 C-11.96103175 103.91845965 -18.20086478 121.02743167 -21.5 139.125 C-21.66846436 139.9197876 -21.83692871 140.7145752 -22.01049805 141.53344727 C-23.89588869 151.21584595 -23.94097339 160.85949362 -23.9375 170.6875 C-23.93823517 171.59140472 -23.93897034 172.49530945 -23.93972778 173.42660522 C-23.89065491 196.46822849 -20.21144695 217.70680755 -11.5 239.125 C-11.21366699 239.83688477 -10.92733398 240.54876953 -10.63232422 241.28222656 C-1.69474795 263.24079488 10.45521936 282.64877324 26.5 300.125 C27.20479492 300.8977124 27.20479492 300.8977124 27.92382812 301.68603516 C39.60966523 314.3429832 53.55741206 324.62537933 68.5 333.125 C70.16482422 334.10533203 70.16482422 334.10533203 71.86328125 335.10546875 C93.56659728 347.55468596 119.61345277 355.12684664 144.66015625 355.36328125 C145.51886322 355.37321106 146.37757019 355.38314087 147.26229858 355.39337158 C187.28942878 355.76079587 224.52788543 348.67690818 258.16064453 325.57861328 C263.21432068 322.125 263.21432068 322.125 266.5 322.125 C285.97947746 321.05881879 305.2568262 318.72623965 323.91796875 312.859375 C326.5 312.125 326.5 312.125 329.5 312.125 C329.5 309.155 329.5 306.185 329.5 303.125 C329.83 303.125 330.16 303.125 330.5 303.125 C330.83306781 308.87636734 331.13046241 314.62767554 331.37988281 320.38330078 C331.45672097 322.13714731 331.53888984 323.89077355 331.62792969 325.64404297 C331.73748937 327.92934554 331.81152232 330.21301173 331.875 332.5 C331.91302734 333.1818335 331.95105469 333.86366699 331.99023438 334.56616211 C332.05395945 338.32266175 331.47758179 340.60418858 329.1640625 343.4765625 C325.74023256 346.88031132 324.45626932 348.09304743 319.55444336 348.25683594 C317.89935413 348.21586069 316.24446769 348.1661109 314.58984375 348.109375 C312.77671576 348.07430791 310.96356317 348.04049471 309.15039062 348.0078125 C306.30179084 347.94620001 303.454436 347.87555504 300.60668945 347.78222656 C285.44443102 347.01497323 285.44443102 347.01497323 272.5 354.125 C265.10058454 361.329694 262.61701777 373.39441689 259.58789062 382.94921875 C257.7144424 388.57325859 256.21478903 392.42773546 251.5 396.125 C247.68875527 398.03062237 243.6450745 397.69401323 239.5 397.125 C235.208338 395.5406685 231.26242419 393.43632091 227.25 391.25 C225.1632285 390.14508782 223.07473811 389.04341464 220.984375 387.9453125 C219.61877441 387.20692139 219.61877441 387.20692139 218.22558594 386.45361328 C211.16058012 383.00970772 204.54901041 381.8006694 196.87890625 383.8125 C187.2851819 387.31705684 182.04254651 393.47430742 175.76953125 401.296875 C173.63187578 403.96066599 171.47169632 406.59342897 169.25 409.1875 C168.64671875 409.90035156 168.0434375 410.61320312 167.421875 411.34765625 C164.25639666 414.27508033 161.29250564 415.03854484 157.0625 415.5 C149.87595661 414.74352175 145.8301061 409.58417865 141.5 404.3125 C141.005 403.72146484 140.51 403.13042969 140 402.52148438 C137.97525839 400.1039218 135.95361127 397.68524971 133.96923828 395.234375 C131.0560209 391.70229728 128.40959217 389.03922001 124.375 386.75 C123.54742187 386.26789063 122.71984375 385.78578125 121.8671875 385.2890625 C115.90416522 382.35675122 109.20039494 382.00779681 102.84765625 383.92578125 C98.06989929 385.87574938 93.46735361 388.13696828 88.86328125 390.4609375 C88.04077881 390.86836182 87.21827637 391.27578613 86.37084961 391.69555664 C84.74623633 392.5039698 83.13045689 393.33046835 81.52563477 394.17749023 C76.03299721 396.91714671 70.63777945 398.53202686 64.5 397.125 C59.81823105 394.27039004 58.49413282 391.4085849 56.8515625 386.26953125 C56.63108246 385.60845871 56.41060242 384.94738617 56.18344116 384.26628113 C55.24821728 381.46174492 54.35063741 378.64565056 53.453125 375.82885742 C50.08511788 365.35890796 46.7378407 355.99016847 36.8125 350.125 C31.14387898 347.2252436 26.5738786 347.07950467 20.26171875 347.45703125 C18.62051571 347.5347602 16.97923589 347.61088159 15.33789062 347.68554688 C12.76275179 347.80695784 10.18962038 347.93736973 7.61645508 348.09545898 C5.12371484 348.24496121 2.63176429 348.35417104 0.13671875 348.45703125 C-1.00426018 348.54099907 -1.00426018 348.54099907 -2.16828918 348.62666321 C-6.63933031 348.77236214 -9.00261976 348.13638354 -12.47729492 345.22924805 C-14.25875827 343.5415316 -15.40062896 342.32374209 -16.5 340.125 C-16.55057728 337.30128925 -16.54248595 334.50192779 -16.4921875 331.6796875 C-16.47465566 329.94531851 -16.45774889 328.21094311 -16.44140625 326.4765625 C-16.41057268 323.74461062 -16.37522148 321.01298077 -16.32861328 318.28125 C-16.2859557 315.64319002 -16.26273457 313.00550052 -16.2421875 310.3671875 C-16.22356659 309.5616745 -16.20494568 308.7561615 -16.1857605 307.92623901 C-16.15386405 300.781528 -17.75569735 293.96994372 -22.78515625 288.546875 C-30.78226228 281.91601715 -41.76441624 279.15804686 -51.48974609 276.10400391 C-58.1009408 273.94386669 -61.86201871 272.01916286 -65.8125 266.1875 C-67.07926252 262.38721243 -66.87655391 259.10445884 -65.44604492 255.38354492 C-64.96240479 254.46677979 -64.47876465 253.55001465 -63.98046875 252.60546875 C-63.45259766 251.58259766 -62.92472656 250.55972656 -62.38085938 249.50585938 C-61.54264648 247.92514648 -61.54264648 247.92514648 -60.6875 246.3125 C-52.05840223 230.75216332 -52.05840223 230.75216332 -52.2265625 213.546875 C-55.62544223 204.31739672 -61.05816712 199.53227561 -68.5703125 193.49609375 C-71.44575392 191.16890316 -74.27309127 188.80461543 -77.0625 186.375 C-77.86816406 185.67890625 -78.67382812 184.9828125 -79.50390625 184.265625 C-82.57473414 180.97244754 -83.39225581 178.11265504 -83.875 173.6875 C-82.9749447 165.13697463 -75.69426075 160.36031662 -69.5 155.125 C-67.54420176 153.55932796 -65.5859038 151.9967729 -63.625 150.4375 C-57.6479781 145.58169659 -54.65337093 141.61224369 -52.5 134.125 C-52.11196535 130.80782122 -52.11196535 130.80782122 -52.125 127.375 C-52.09664062 126.24578125 -52.06828125 125.1165625 -52.0390625 123.953125 C-53.18986879 114.39558126 -58.5871296 105.81478128 -63.22851562 97.53710938 C-65.87737725 92.50935872 -67.19281325 88.77842993 -66.12695312 83.10009766 C-65.14831497 80.0170826 -63.90099451 78.28708958 -61.5 76.125 C-58.42578125 74.53515625 -58.42578125 74.53515625 -54.8125 73.1875 C-54.164021 72.93935547 -53.51554199 72.69121094 -52.84741211 72.43554688 C-49.26395252 71.08049655 -45.65042893 69.83085612 -42.015625 68.62109375 C-28.62845404 64.35588837 -28.62845404 64.35588837 -19.0625 54.5 C-16.50576771 48.97745825 -16.43481484 44.48009453 -16.61328125 38.44921875 C-16.64541759 36.71682471 -16.67596666 34.98440063 -16.70507812 33.25195312 C-16.75438073 30.53246065 -16.8124352 27.81456601 -16.89770508 25.09594727 C-16.97685459 22.46344887 -17.01698226 19.83264113 -17.05078125 17.19921875 C-17.1019384 15.99261848 -17.1019384 15.99261848 -17.15412903 14.76164246 C-17.18073252 9.21548712 -15.80506187 6.45004575 -11.9884491 2.43489075 C-8.43613549 -0.69127778 -4.47556628 -0.02467576 0 0 Z " fill="#F67F00" transform="translate(98.5,81.875)"/>
<path d="M0 0 C7.12974922 4.20317986 12.47273231 11.17120408 17.8125 17.375 C18.90498047 18.63763672 18.90498047 18.63763672 20.01953125 19.92578125 C20.61121094 20.61027344 21.20289063 21.29476563 21.8125 22 C26.34303588 27.40149716 26.34303588 27.40149716 32.75390625 29.80078125 C38.42355696 29.67222779 43.31054148 26.58146502 48.25 24.0625 C70.90197104 12.72920268 70.90197104 12.72920268 83.40234375 16.06640625 C93.09173347 20.02497743 97.67139423 26.01465918 101.8125 35.375 C103.32211338 39.29709295 104.6750462 43.26222483 106 47.25 C106.67855393 49.26904937 107.35945052 51.28731331 108.04296875 53.3046875 C108.33582764 54.18366699 108.62868652 55.06264648 108.93041992 55.96826172 C110.70637402 60.81391783 111.98858632 63.12615391 116.8125 65.375 C119.41742254 65.77584408 119.41742254 65.77584408 122.25 65.625 C123.37921875 65.60308594 124.5084375 65.58117187 125.671875 65.55859375 C128.85277229 65.43655832 132.02655064 65.23964961 135.203125 65.03515625 C136.15775635 64.97875977 137.1123877 64.92236328 138.09594727 64.86425781 C139.98817123 64.74908588 141.87950059 64.61771683 143.76928711 64.46777344 C151.55688482 63.9881051 158.22536056 65.02528463 164.8359375 69.35546875 C171.31450836 75.43585502 175.31924229 80.54404428 176.8125 89.375 C176.82723922 90.99002056 176.78490761 92.60637097 176.69140625 94.21875 C176.64274414 95.12955322 176.59408203 96.04035645 176.54394531 96.97875977 C176.48819336 97.93451904 176.43244141 98.89027832 176.375 99.875 C176.27558321 101.85277687 176.17792005 103.83064269 176.08203125 105.80859375 C176.01169678 107.24114502 176.01169678 107.24114502 175.93994141 108.70263672 C175.77719012 112.11542528 175.63701797 115.52143925 175.5625 118.9375 C175.53671875 119.88753906 175.5109375 120.83757812 175.484375 121.81640625 C175.89855843 125.04605086 176.81781139 126.80667545 178.8125 129.375 C181.04048423 130.80809032 181.04048423 130.80809032 183.75 131.75 C184.80574219 132.16121094 185.86148437 132.57242188 186.94921875 132.99609375 C189.87256402 134.06090914 192.81770737 135.05233754 195.76953125 136.03515625 C197.07772827 136.47625732 197.07772827 136.47625732 198.41235352 136.92626953 C200.13836132 137.50346053 201.86921964 138.06640562 203.60522461 138.61279297 C211.48973296 141.22980522 218.1220767 145.03933409 222.25 152.5 C222.72308594 153.32757813 223.19617188 154.15515625 223.68359375 155.0078125 C226.79717647 161.53663994 226.97493781 169.28095073 225.01171875 176.1953125 C223.10798877 180.89248819 220.82450979 185.36500297 218.4765625 189.8515625 C217.86542603 191.03371338 217.86542603 191.03371338 217.24194336 192.23974609 C216.43167219 193.79593821 215.60501287 195.34373814 214.76000977 196.88134766 C212.07094422 201.99790756 211.12697802 205.58478758 211.8125 211.375 C212.85353633 213.61314043 212.85353633 213.61314043 214.625 215.25 C215.26179688 215.90613281 215.89859375 216.56226563 216.5546875 217.23828125 C224.14179824 224.44871302 224.14179824 224.44871302 232.12109375 231.21484375 C238.65709491 236.46588438 242.24252051 241.7731164 243.2890625 250.22265625 C243.74647345 258.43557227 243.08510876 265.76297854 237.8125 272.375 C231.49860613 279.15878626 224.26310897 285.04373387 216.8359375 290.55859375 C213.3036701 293.72945155 211.99317964 296.21712342 211.2578125 300.9296875 C211.5015066 307.03924194 214.86211034 312.23068061 217.6875 317.5 C218.79253536 319.60495134 219.89421185 321.7116701 220.9921875 323.8203125 C221.48444824 324.74344238 221.97670898 325.66657227 222.48388672 326.61767578 C226.16714603 334.26169098 227.19688687 341.82958668 225.125 350.12890625 C221.82091275 359.14631104 217.20501372 363.97309245 208.66113281 368.11499023 C203.88130172 370.22920932 198.96082495 371.86683317 194 373.5 C191.99169945 374.16387982 189.98511578 374.83298083 187.98046875 375.5078125 C187.10672607 375.79543457 186.2329834 376.08305664 185.33276367 376.37939453 C181.86881771 377.74779244 178.68995749 379.12864147 176.51171875 382.22265625 C175.65119384 384.87153459 175.58425413 387.02326013 175.625 389.8125 C175.63917969 390.94945312 175.65335937 392.08640625 175.66796875 393.2578125 C175.7580984 396.38178459 175.92736005 399.49753081 176.11328125 402.6171875 C176.16572998 403.5357251 176.21817871 404.4542627 176.2722168 405.40063477 C176.38024898 407.2221818 176.49972373 409.04309581 176.63208008 410.86303711 C177.13146886 419.11499008 175.99009572 426.60882377 170.8125 433.375 C165.09265376 439.80982702 159.46590451 443.56126242 150.8125 444.375 C144.94203179 444.3982545 139.09179822 443.94822358 133.23925781 443.53466797 C129.78130896 443.30715302 126.3403896 443.18701223 122.875 443.125 C121.81410156 443.09921875 120.75320313 443.0734375 119.66015625 443.046875 C116.25762867 443.43893579 114.49586542 444.25509514 111.8125 446.375 C110.37940968 448.60298423 110.37940968 448.60298423 109.4375 451.3125 C109.02628906 452.36824219 108.61507813 453.42398437 108.19140625 454.51171875 C107.12659086 457.43506402 106.13516246 460.38020737 105.15234375 463.33203125 C104.85827637 464.2041626 104.56420898 465.07629395 104.26123047 465.97485352 C103.68403947 467.70086132 103.12109438 469.43171964 102.57470703 471.16772461 C99.95769478 479.05223296 96.14816591 485.6845767 88.6875 489.8125 C87.85992187 490.28558594 87.03234375 490.75867188 86.1796875 491.24609375 C79.65086006 494.35967647 71.90654927 494.53743781 64.9921875 492.57421875 C60.29501181 490.67048877 55.82249703 488.38700979 51.3359375 486.0390625 C50.15378662 485.42792603 50.15378662 485.42792603 48.94775391 484.80444336 C47.39156179 483.99417219 45.84376186 483.16751287 44.30615234 482.32250977 C39.17752608 479.62710261 35.61533661 478.68275289 29.8125 479.375 C25.65944945 481.17938806 23.42620122 483.76676705 20.6875 487.3125 C3.0086068 509.38912783 3.0086068 509.38912783 -9.01953125 510.8359375 C-17.23867602 511.32044674 -24.59239422 510.68199918 -31.1875 505.375 C-35.29095889 501.49283113 -39.04350466 497.30400212 -42.74121094 493.03857422 C-43.99793873 491.59304026 -45.28184413 490.17122146 -46.5703125 488.75390625 C-51.1875 483.66004555 -51.1875 483.66004555 -51.1875 481.375 C-55.483204 479.227148 -59.47316524 478.59778717 -64.1875 479.375 C-68.39613051 481.02236566 -72.33273083 483.11606242 -76.3125 485.25 C-78.41745134 486.35503536 -80.5241701 487.45671185 -82.6328125 488.5546875 C-83.55594238 489.04694824 -84.47907227 489.53920898 -85.43017578 490.04638672 C-93.07419098 493.72964603 -100.64208668 494.75938687 -108.94140625 492.6875 C-117.95881104 489.38341275 -122.78559245 484.76751372 -126.92749023 476.22363281 C-129.04170932 471.44380172 -130.67933317 466.52332495 -132.3125 461.5625 C-132.97637982 459.55419945 -133.64548083 457.54761578 -134.3203125 455.54296875 C-134.60793457 454.66922607 -134.89555664 453.7954834 -135.19189453 452.89526367 C-136.55350565 449.4484977 -137.94223936 446.26868921 -141 444.07421875 C-143.82749856 443.17042903 -146.21598224 443.14821311 -149.1875 443.1875 C-150.41726562 443.20167969 -151.64703125 443.21585937 -152.9140625 443.23046875 C-156.0388415 443.31598745 -159.15356033 443.48232315 -162.2734375 443.67578125 C-163.14871094 443.72822998 -164.02398437 443.78067871 -164.92578125 443.8347168 C-166.64533695 443.94250746 -168.36421557 444.06191544 -170.08203125 444.19458008 C-178.16039645 444.71401896 -185.58638453 443.44063861 -192.1875 438.375 C-198.94042647 432.25984992 -202.84151926 425.98626697 -203.32666016 416.71582031 C-203.26033064 413.98583706 -203.09098298 411.28460549 -202.875 408.5625 C-202.75739563 406.63031219 -202.64150326 404.6980194 -202.52734375 402.765625 C-202.46788574 401.84201172 -202.40842773 400.91839844 -202.34716797 399.96679688 C-202.1384805 396.57929514 -202.00335705 393.20607503 -201.9375 389.8125 C-201.91171875 388.86246094 -201.8859375 387.91242188 -201.859375 386.93359375 C-202.27355843 383.70394914 -203.19281139 381.94332455 -205.1875 379.375 C-207.41548423 377.94190968 -207.41548423 377.94190968 -210.125 377 C-211.18074219 376.58878906 -212.23648438 376.17757813 -213.32421875 375.75390625 C-216.24756402 374.68909086 -219.19270737 373.69766246 -222.14453125 372.71484375 C-223.0166626 372.42077637 -223.88879395 372.12670898 -224.78735352 371.82373047 C-226.51336132 371.24653947 -228.24421964 370.68359438 -229.98022461 370.13720703 C-238.55923987 367.28967526 -245.86967751 362.54204409 -250.1875 354.375 C-251.82654093 350.19659988 -252.50729207 346.60788393 -252.5625 342.125 C-252.60503906 340.57039062 -252.60503906 340.57039062 -252.6484375 338.984375 C-251.44173874 329.53531012 -246.04435358 320.94880727 -241.546875 312.69921875 C-238.71666691 307.26623 -237.38280074 303.51407661 -238.1875 297.375 C-239.99188806 293.22194945 -242.57926705 290.98870122 -246.125 288.25 C-268.20162783 270.5711068 -268.20162783 270.5711068 -269.6484375 258.54296875 C-270.13294674 250.32382398 -269.49449918 242.97010578 -264.1875 236.375 C-259.80076781 231.73821684 -255.02121737 227.53550563 -250.1875 223.375 C-249.34574219 222.64667969 -248.50398438 221.91835937 -247.63671875 221.16796875 C-246.95222656 220.57628906 -246.26773438 219.98460937 -245.5625 219.375 C-240.02065228 214.67838755 -240.02065228 214.67838755 -237.7265625 207.97265625 C-237.84814334 201.75436191 -241.19141285 196.60454468 -244.0625 191.25 C-245.16753536 189.14504866 -246.26921185 187.0383299 -247.3671875 184.9296875 C-248.10557861 183.54499268 -248.10557861 183.54499268 -248.85888672 182.13232422 C-252.5986571 174.37102934 -253.7302484 166.20413456 -251.5 157.77734375 C-247.51474074 148.0964848 -241.55669601 143.52002339 -232.1875 139.375 C-228.26540705 137.86538662 -224.30027517 136.5124538 -220.3125 135.1875 C-218.29345063 134.50894607 -216.27518669 133.82804948 -214.2578125 133.14453125 C-213.37883301 132.85167236 -212.49985352 132.55881348 -211.59423828 132.25708008 C-206.7493179 130.48139563 -204.43355348 129.19985563 -202.1875 124.375 C-201.78685207 121.73611114 -201.78685207 121.73611114 -201.9375 118.875 C-201.96070313 117.74578125 -201.98390625 116.6165625 -202.0078125 115.453125 C-202.12859445 112.35671488 -202.30713515 109.26505306 -202.4921875 106.171875 C-202.54407227 105.25728516 -202.59595703 104.34269531 -202.64941406 103.40039062 C-202.75573657 101.59099808 -202.8742919 99.78227027 -203.00683594 97.97460938 C-203.61229551 88.02401296 -201.90034666 79.98957233 -195.1875 72.375 C-186.6666675 65.00392863 -178.34997094 64.00230916 -167.5 64.75 C-165.54957517 64.85851035 -163.59905315 64.96528813 -161.6484375 65.0703125 C-160.24416504 65.15007324 -160.24416504 65.15007324 -158.81152344 65.23144531 C-155.41417246 65.41730709 -152.02696196 65.55493671 -148.625 65.625 C-147.67496094 65.65078125 -146.72492188 65.6765625 -145.74609375 65.703125 C-142.51644914 65.28894157 -140.75582455 64.36968861 -138.1875 62.375 C-136.75440968 60.14701577 -136.75440968 60.14701577 -135.8125 57.4375 C-135.40128906 56.38175781 -134.99007812 55.32601562 -134.56640625 54.23828125 C-133.50159086 51.31493598 -132.51016246 48.36979263 -131.52734375 45.41796875 C-131.23327637 44.5458374 -130.93920898 43.67370605 -130.63623047 42.77514648 C-130.05903947 41.04913868 -129.49609438 39.31828036 -128.94970703 37.58227539 C-126.10217526 29.00326013 -121.35454409 21.69282249 -113.1875 17.375 C-109.00909988 15.73595907 -105.42038393 15.05520793 -100.9375 15 C-99.90109375 14.97164062 -98.8646875 14.94328125 -97.796875 14.9140625 C-88.2131201 16.13796193 -79.28022536 21.67057038 -70.77929688 26.015625 C-65.77221119 28.4806518 -61.90328543 30.248245 -56.1875 29.375 C-54.03953609 28.31230308 -54.03953609 28.31230308 -52.375 26.5625 C-51.70984375 25.92570312 -51.0446875 25.28890625 -50.359375 24.6328125 C-45.5201505 19.60210789 -40.70061741 14.5284021 -36.34765625 9.06640625 C-27.51861014 -1.92315938 -13.23182412 -5.43951008 0 0 Z M-32.1875 27.375 C-33.75317204 29.33079824 -35.3157271 31.2890962 -36.875 33.25 C-42.42695627 40.08391839 -47.45491777 43.28412548 -56.24609375 44.95703125 C-70.58194097 45.93485204 -82.37960562 38.19403187 -94.5859375 31.515625 C-97.32338082 30.31542462 -98.81424966 30.06462294 -101.75 30.4375 C-102.47316406 30.51097656 -103.19632813 30.58445312 -103.94140625 30.66015625 C-107.10408355 31.66671268 -108.83085238 33.02982956 -111.1875 35.375 C-112.36106073 37.83169224 -113.27658449 40.0649124 -114.125 42.625 C-114.37314453 43.32302734 -114.62128906 44.02105469 -114.87695312 44.74023438 C-115.66132128 46.9471342 -116.42606524 49.16009353 -117.1875 51.375 C-124.78104548 73.33484545 -124.78104548 73.33484545 -133.375 77.8125 C-138.64888781 80.13217847 -143.05261729 80.42970897 -148.765625 80.26171875 C-150.50127418 80.22957595 -152.23695349 80.19902768 -153.97265625 80.16992188 C-156.70313485 80.12064676 -159.43201651 80.06267151 -162.16162109 79.97729492 C-164.80071093 79.89812701 -167.43811273 79.85800762 -170.078125 79.82421875 C-170.88566223 79.79011398 -171.69319946 79.75600922 -172.52520752 79.72087097 C-178.08253974 79.69432552 -180.85577128 81.06022845 -184.87884521 84.8865509 C-188.00999311 88.44788297 -187.25943482 92.34569977 -187.1796875 96.8203125 C-187.16215566 98.55468149 -187.14524889 100.28905689 -187.12890625 102.0234375 C-187.09807268 104.75538938 -187.06272148 107.48701923 -187.01611328 110.21875 C-186.9734557 112.85680998 -186.95023457 115.49449948 -186.9296875 118.1328125 C-186.90175613 119.341082 -186.90175613 119.341082 -186.8732605 120.57376099 C-186.84076371 127.85294712 -188.51833221 134.45780309 -193.57373047 140.01855469 C-201.16133206 146.39627246 -212.14445267 148.96061259 -221.34960938 152.06835938 C-222.41630859 152.43896484 -223.48300781 152.80957031 -224.58203125 153.19140625 C-225.53956299 153.51568604 -226.49709473 153.83996582 -227.48364258 154.17407227 C-231.40527002 155.91587682 -234.40642576 157.96162756 -236.5 161.75 C-238.00433842 167.49383762 -237.09030839 171.30740732 -234.37890625 176.5078125 C-233.79689453 177.64347656 -233.21488281 178.77914062 -232.61523438 179.94921875 C-231.99414858 181.13315844 -231.37239708 182.31674913 -230.75 183.5 C-229.53715417 185.83300624 -228.33241346 188.16994988 -227.12890625 190.5078125 C-226.58951416 191.53793457 -226.05012207 192.56805664 -225.49438477 193.62939453 C-222.11455489 200.7300048 -221.92608597 209.56243124 -223.90625 217.1171875 C-227.04003715 224.62311317 -233.27580813 229.44765512 -239.125 234.875 C-239.71990234 235.43058594 -240.31480469 235.98617187 -240.92773438 236.55859375 C-243.74127416 239.17226458 -246.574951 241.72636624 -249.54296875 244.1640625 C-253.30437411 247.30875295 -254.0505352 248.89578016 -254.5 253.75 C-253.96642333 259.93948941 -251.31185409 263.70124672 -246.6875 267.6875 C-245.80578125 268.45707031 -244.9240625 269.22664062 -244.015625 270.01953125 C-242.13305628 271.58747177 -240.2264277 273.12697413 -238.296875 274.63671875 C-230.18581476 280.98595033 -223.48291357 287.69750363 -221.90234375 298.28515625 C-221.07306261 310.00141036 -228.54029199 321.42314014 -233.88427734 331.39575195 C-236.21289541 335.85886321 -237.94789056 339.20588033 -237.1875 344.375 C-234.57120221 350.69771966 -231.44107055 352.74345287 -225.1875 355.375 C-220.42246697 357.11195113 -215.59662775 358.66304049 -210.76367188 360.19921875 C-201.61543675 363.24256801 -194.01413955 366.88310244 -189.0625 375.4453125 C-186.88533455 380.24673987 -187.147543 384.87243513 -187.30078125 390.05078125 C-187.33291759 391.78317529 -187.36346666 393.51559937 -187.39257812 395.24804688 C-187.44188073 397.96753935 -187.4999352 400.68543399 -187.58520508 403.40405273 C-187.66435459 406.03655113 -187.70448226 408.66735887 -187.73828125 411.30078125 C-187.77238602 412.10518143 -187.80649078 412.9095816 -187.84162903 413.73835754 C-187.86823252 419.28451288 -186.49256187 422.04995425 -182.6759491 426.06510925 C-177.40130319 430.70699447 -167.44251604 428.42884909 -160.8984375 428.015625 C-159.33222656 427.92087891 -159.33222656 427.92087891 -157.734375 427.82421875 C-155.61097884 427.69085273 -153.48848568 427.54228252 -151.3671875 427.37890625 C-142.55476493 426.88811539 -136.22862561 428.70633215 -128.875 433.5625 C-121.50697461 441.27322425 -118.79819417 451.67899168 -115.5625 461.60473633 C-114.9517039 463.46647147 -114.3198381 465.32125216 -113.6875 467.17578125 C-113.3265625 468.27059814 -112.965625 469.36541504 -112.59375 470.4934082 C-110.93656389 473.88920121 -109.37577081 475.37633831 -106.1875 477.375 C-98.25594606 479.39504362 -91.4227971 475.65103272 -84.5625 472.0625 C-82.59266646 471.06340249 -80.62133837 470.06724552 -78.6484375 469.07421875 C-77.71628418 468.60491943 -76.78413086 468.13562012 -75.82373047 467.65209961 C-68.02492075 463.87403204 -61.11578637 461.74865595 -52.5390625 464.1015625 C-43.36007157 467.49200059 -38.56011763 472.96855268 -32.5625 480.4453125 C-30.22304517 483.33115316 -27.8309762 486.15029016 -25.375 488.9375 C-24.31345703 490.14599609 -24.31345703 490.14599609 -23.23046875 491.37890625 C-20.1491814 494.38949484 -18.09887297 495.29061361 -13.8125 495.6875 C-7.62301059 495.15392333 -3.86125328 492.49935409 0.125 487.875 C0.89457031 486.99328125 1.66414062 486.1115625 2.45703125 485.203125 C4.02497177 483.32055628 5.56447413 481.4139277 7.07421875 479.484375 C13.46496307 471.32028278 20.27467056 464.49799378 30.98046875 463.08984375 C40.09462593 462.52473703 47.36992579 466.52901672 55.2265625 470.7109375 C56.39348633 471.32207397 56.39348633 471.32207397 57.58398438 471.94555664 C59.11415362 472.75302251 60.6345147 473.57945501 62.14257812 474.42749023 C67.74637355 477.39838133 72.5026148 478.07371691 78.8125 477.375 C81.91116989 476.36456417 83.21487666 475.48883669 84.75878906 472.61132812 C87.88965174 465.50779895 90.29500791 458.21059745 92.63671875 450.81445312 C95.69202385 441.64245154 99.80020081 434.25249824 108.50244141 429.4296875 C116.15853051 426.99021966 124.56708739 428.02645254 132.5 428.375 C136.1704774 428.53534676 139.83903847 428.65479151 143.51171875 428.75 C144.34104416 428.79979004 145.17036957 428.84958008 146.02482605 428.90087891 C150.66253528 429.01751729 153.21748958 428.49902741 156.83129883 425.4765625 C158.59370726 423.79007729 159.71977019 422.56045963 160.8125 420.375 C160.82657613 417.42914779 160.78177129 414.50589746 160.69921875 411.5625 C160.66705405 409.7461208 160.63650853 407.92971235 160.60742188 406.11328125 C160.5583023 403.25359324 160.50061415 400.39545861 160.41479492 397.53662109 C159.82528517 377.06585059 159.82528517 377.06585059 166.8125 369.375 C174.017194 361.97558454 186.08191689 359.49201777 195.63671875 356.46289062 C201.26075859 354.5894424 205.11523546 353.08978903 208.8125 348.375 C210.71782253 344.56435495 210.38227251 340.51936721 209.8125 336.375 C208.22730823 332.10429857 206.12192105 328.17894213 203.9375 324.1875 C193.50324232 304.63839774 193.50324232 304.63839774 196.53515625 293.7890625 C199.95510954 284.56765 205.36743623 279.7848717 212.8828125 273.74609375 C215.75825392 271.41890316 218.58559127 269.05461543 221.375 266.625 C222.18066406 265.92890625 222.98632812 265.2328125 223.81640625 264.515625 C226.88723414 261.22244754 227.70475581 258.36265504 228.1875 253.9375 C227.28798857 245.39214139 220.00921719 240.6023983 213.8125 235.375 C211.87608209 233.85278913 209.93859402 232.33193855 208 230.8125 C201.21156679 225.30888325 196.69946232 219.03920336 195.5234375 210.203125 C194.9611002 200.90976123 199.16178431 193.44951406 203.40625 185.48046875 C203.86273926 184.60890137 204.31922852 183.73733398 204.78955078 182.83935547 C205.70417281 181.10435294 206.63937678 179.38000699 207.59716797 177.66845703 C210.61597036 171.95821956 211.7385722 167.66860052 209.8125 161.375 C207.71573245 156.92560933 204.78198317 155.79824008 200.375 154.12890625 C198.19182345 153.3856156 196.00405026 152.6557258 193.8125 151.9375 C191.54390172 151.15325523 189.27694427 150.36424662 187.01171875 149.5703125 C185.93325684 149.19293945 184.85479492 148.81556641 183.74365234 148.42675781 C174.97144944 145.27911079 167.25352471 142.0653505 162.8125 133.375 C160.68221264 128.23613184 160.62984373 123.94756286 160.828125 118.50390625 C160.86315372 116.77801823 160.89697066 115.05210527 160.9296875 113.32617188 C160.99156706 110.62876322 161.06266751 107.93262236 161.15527344 105.23608398 C161.24035792 102.61686816 161.28692111 99.99913163 161.328125 97.37890625 C161.36536682 96.58078018 161.40260864 95.78265411 161.440979 94.96034241 C161.49080282 89.47271431 160.12823112 86.69981924 156.39984131 82.68736267 C152.57403704 79.52431092 147.99834895 80.33266974 143.33984375 80.453125 C141.6178578 80.4804103 139.89585108 80.50640981 138.17382812 80.53125 C135.47021193 80.57426152 132.76768733 80.62452401 130.06469727 80.69726562 C109.83033835 81.21795495 109.83033835 81.21795495 102.8125 75.375 C96.91475919 69.76776814 94.69092523 62.42997971 92.1875 54.875 C88.6260082 41.84411984 88.6260082 41.84411984 80.4375 31.875 C75.84161943 29.97325632 72.70946239 29.64736614 68.0234375 31.44482422 C66.61964844 32.17983154 66.61964844 32.17983154 65.1875 32.9296875 C64.15109375 33.46207031 63.1146875 33.99445312 62.046875 34.54296875 C60.97953125 35.10628906 59.9121875 35.66960938 58.8125 36.25 C56.68936731 37.35515723 54.5644201 38.45683695 52.4375 39.5546875 C51.03371094 40.29307861 51.03371094 40.29307861 49.6015625 41.04638672 C41.39999684 44.95333003 32.09961067 46.13729617 23.234375 43.65234375 C16.28508998 40.37663116 11.45736258 33.98225329 6.3125 28.4375 C5.75691406 27.84259766 5.20132812 27.24769531 4.62890625 26.63476562 C2.01826867 23.82449106 -0.52539226 20.99638179 -2.9453125 18.01953125 C-6.24528117 14.12740793 -8.64568953 13.54319751 -13.625 13 C-22.17552537 13.9000553 -26.95218338 21.18073925 -32.1875 27.375 Z " fill="#010100" transform="translate(269.1875,1.625)"/>
<path d="M0 0 C0.33 0 0.66 0 1 0 C1.11275269 0.8818396 1.11275269 0.8818396 1.2277832 1.78149414 C9.68630405 67.34621922 37.91700232 129.57763527 91 171 C92.1971746 171.97196688 93.39375224 172.94466934 94.58984375 173.91796875 C126.53091646 199.53348758 163.95989645 215.42705558 204 223 C205.2271875 223.23460937 206.454375 223.46921875 207.71875 223.7109375 C214.11484706 224.84838775 220.52352253 225.51553909 227 226 C223.23861788 229.2197431 218.92979338 230.97702284 214.4375 232.9375 C213.68919922 233.27201172 212.94089844 233.60652344 212.16992188 233.95117188 C202.41641941 238.25199412 192.75694071 241.52634161 182.3125 243.6875 C181.33216797 243.89955078 180.35183594 244.11160156 179.34179688 244.33007812 C138.27069929 253.05046522 94.70472567 243.76250103 59.64599609 221.08496094 C22.02682672 196.28822574 -7.01253573 158.14929005 -16.75878906 113.71533203 C-17.21443365 111.48246016 -17.61607069 109.24637149 -18 107 C-18.17732666 105.96987793 -18.35465332 104.93975586 -18.53735352 103.87841797 C-19.92818235 95.09521319 -20.35054282 86.51047927 -20.3125 77.625 C-20.30976578 76.60569397 -20.30976578 76.60569397 -20.30697632 75.5657959 C-20.26097388 65.360148 -19.62233478 55.90777295 -17 46 C-16.65316648 44.49940728 -16.30960301 42.99805621 -15.96875 41.49609375 C-12.52177307 26.85916955 -6.80047007 13.37375295 0 0 Z " fill="#F2C13A" transform="translate(108,177)"/>
<path d="M0 0 C0.75222839 -0.00570007 1.50445679 -0.01140015 2.27947998 -0.01727295 C3.86973677 -0.02670224 5.46001291 -0.03324869 7.05029297 -0.03710938 C9.46226872 -0.04678631 11.87338128 -0.0778163 14.28515625 -0.109375 C15.83593248 -0.11590889 17.38671476 -0.12115784 18.9375 -0.125 C20.00511566 -0.1435202 20.00511566 -0.1435202 21.09429932 -0.16241455 C25.61778076 -0.1426602 29.13253964 0.66216802 33.28778076 2.46075439 C37.39743333 4.02804829 40.87403003 4.30323889 45.21362305 3.76513672 C51.68223834 3.09168147 58.0693307 3.13009941 64.56640625 3.2109375 C67.10090757 3.22843755 69.63541302 3.24534736 72.16992188 3.26171875 C76.12438548 3.29276894 80.07863959 3.32849465 84.03295898 3.37451172 C87.87746827 3.41681392 91.7217281 3.44026592 95.56640625 3.4609375 C97.33840141 3.48886887 97.33840141 3.48886887 99.14619446 3.5173645 C105.16533084 3.53617679 108.89696976 3.1562093 114.234375 0.203125 C117.09874544 -0.09100747 119.73782547 -0.24166074 122.59765625 -0.23046875 C123.38907516 -0.2357106 124.18049408 -0.24095245 124.99589539 -0.24635315 C126.66416252 -0.25275119 128.3324749 -0.25146517 130.00073242 -0.24291992 C132.52931796 -0.23443392 135.05562291 -0.2631604 137.58398438 -0.29492188 C147.11928573 -0.33790316 154.96061639 -0.22542355 162.57421875 6.16796875 C163.10144531 6.81894531 163.62867188 7.46992188 164.171875 8.140625 C164.71714844 8.78902344 165.26242187 9.43742188 165.82421875 10.10546875 C170.46574213 17.00989549 170.16370557 25.01920292 168.734375 32.9921875 C165.89524794 43.41307433 160.21242393 50.66270545 151.19921875 56.52734375 C142.13769465 61.08207809 129.74538652 60.53206334 120 58.54296875 C110.67299753 55.19741352 104.79269936 48.66288975 100.421875 39.96875 C97.38882342 32.90493251 97.234375 27.04911845 97.234375 19.203125 C80.074375 19.203125 62.914375 19.203125 45.234375 19.203125 C45.234375 22.503125 45.234375 25.803125 45.234375 29.203125 C43.89369957 39.09354641 40.2458836 47.2191698 32.421875 53.578125 C25.63643902 58.70090448 17.55542696 59.74135839 9.296875 59.640625 C8.41805664 59.63232666 7.53923828 59.62402832 6.63378906 59.61547852 C-2.85641912 59.36791553 -9.93609075 56.9735598 -16.94140625 50.39453125 C-24.48200227 41.33612789 -26.2769105 31.21699878 -26.16796875 19.75390625 C-25.44282758 13.35435944 -22.67674174 8.61232506 -17.7265625 4.515625 C-11.88849737 0.6673124 -6.9330336 0.04093204 0 0 Z " fill="#020201" transform="translate(185.765625,206.796875)"/>
<path d="M0 0 C3.5625 0.4375 3.5625 0.4375 6 2.0625 C8.08773808 5.23586187 8.05637664 6.66287139 7.5625 10.4375 C6.02771089 13.27300293 4.08723811 15.76073693 2.125 18.3125 C-3.79295859 26.35169407 -8.86055114 34.57106522 -13.4375 43.4375 C-13.75557617 44.05302734 -14.07365234 44.66855469 -14.40136719 45.30273438 C-25.62242258 67.36963745 -31.66249925 91.39521358 -31.6875 116.125 C-31.68850708 116.81391327 -31.68951416 117.50282654 -31.69055176 118.21261597 C-31.67412102 134.86783017 -29.7862864 150.59058706 -24.4375 166.4375 C-24.22754395 167.06043945 -24.01758789 167.68337891 -23.80126953 168.32519531 C-16.65332211 189.20322328 -6.05580353 208.83748983 8.5625 225.4375 C9.3153125 226.29988281 10.068125 227.16226563 10.84375 228.05078125 C13.05263456 230.54334105 15.29506996 232.99817093 17.5625 235.4375 C18.17351562 236.10265625 18.78453125 236.7678125 19.4140625 237.453125 C48.40626855 267.80241304 91.67468418 284.90639037 133.13916016 285.91430664 C170.76582965 286.16024951 208.24531323 273.5745827 237.81884766 250.10839844 C241.38259202 247.40936671 242.80732452 246.41842991 247.4296875 246.53515625 C252.11606877 247.8849743 252.11606877 247.8849743 253.5625 250.4375 C254.3125 253.625 254.3125 253.625 253.5625 257.4375 C239.54184257 275.17491963 212.04927875 285.21019557 191.5625 292.4375 C190.43585938 292.84871094 189.30921875 293.25992187 188.1484375 293.68359375 C184.97589715 294.75924397 181.81385683 295.62917155 178.5625 296.4375 C177.52101807 296.70820312 177.52101807 296.70820312 176.45849609 296.984375 C162.47242009 300.46692263 148.51875452 300.83794521 134.1875 300.875 C133.29511627 300.88108276 132.40273254 300.88716553 131.48330688 300.89343262 C119.51486047 300.94675214 108.26233439 299.96623969 96.5625 297.4375 C95.6446875 297.24422119 94.726875 297.05094238 93.78125 296.85180664 C48.68562599 286.80065677 9.53748558 258.08747837 -15.9375 219.875 C-35.96775051 188.29004951 -47.13314091 153.86764122 -46.9375 116.4375 C-46.93606995 115.54763397 -46.93463989 114.65776794 -46.9331665 113.74093628 C-46.87283455 98.49791451 -45.50618919 84.1956712 -41.4375 69.4375 C-41.21819824 68.61926758 -40.99889648 67.80103516 -40.77294922 66.95800781 C-34.38302896 43.85856572 -22.26791318 21.43339423 -6.4375 3.4375 C-5.94121094 2.86644531 -5.44492188 2.29539063 -4.93359375 1.70703125 C-3.4375 0.4375 -3.4375 0.4375 0 0 Z " fill="#030200" transform="translate(120.4375,137.5625)"/>
<path d="M0 0 C0.7523291 0.00870117 1.5046582 0.01740234 2.27978516 0.02636719 C48.92959219 0.73484815 92.39165521 28.22613717 123.9140625 60.6015625 C129.92324817 66.94567724 135.08988526 73.78454851 140 81 C140.64243652 81.93199219 140.64243652 81.93199219 141.29785156 82.8828125 C155.72744065 104.05654568 165.47363414 127.80139005 170 153 C170.16773926 153.82741699 170.33547852 154.65483398 170.50830078 155.50732422 C172.13387441 164.09715162 172.39799007 172.5427252 172.375 181.25 C172.37478851 181.99167419 172.37457703 182.73334839 172.37435913 183.49749756 C172.32003361 202.69474542 169.50677995 220.91077011 163 239 C162.56566746 240.27579039 162.13208376 241.55183594 161.69921875 242.828125 C154.52064279 263.45298398 143.59972295 285.40027705 128 301 C124.625 301.4375 124.625 301.4375 121 301 C118.5 298.9375 118.5 298.9375 117 296 C117.2655479 290.68286656 118.39941881 287.89690108 121.8125 283.875 C138.3863339 262.73544434 148.61794987 237.14593585 154 211 C154.20753906 210.05511719 154.41507812 209.11023438 154.62890625 208.13671875 C162.11808624 168.59594326 150.99897296 124.91823439 128.61279297 91.95751953 C122.08756957 82.67036607 114.87595944 74.16279256 107 66 C106.26394531 65.21238281 105.52789062 64.42476563 104.76953125 63.61328125 C83.165269 41.06457038 52.96887323 26.51274493 23 19 C22.34322266 18.83338867 21.68644531 18.66677734 21.00976562 18.49511719 C0.68245604 13.61049503 -23.80633934 13.91570777 -44 19 C-45.52186362 19.3449513 -47.04401376 19.68864031 -48.56640625 20.03125 C-72.74733219 25.70533182 -94.50015118 37.12370805 -114.36865234 51.81420898 C-118.23339856 54.62340868 -120.19556637 55.588298 -125 55 C-128.21525814 52.88469859 -128.87870717 51.48517133 -129.8125 47.75 C-128.06103442 39.66631269 -119.87990138 35.82530623 -113.33276367 31.56591797 C-77.74734441 8.89333635 -42.21571479 -0.79158658 0 0 Z " fill="#040201" transform="translate(267,73)"/>
<path d="M0 0 C1.33333333 1.66666667 2.66666667 3.33333333 4 5 C11.52127069 10.68130318 18.60772918 12.2900384 27.875 12.625 C28.75414062 12.66367187 29.63328125 12.70234375 30.5390625 12.7421875 C32.69238793 12.83581034 34.84616414 12.91896459 37 13 C39.34527281 17.5107727 39.87461181 20.94931378 39 26 C35.96186065 33.68198733 31.22928771 38.23629867 24 42 C23.37351563 42.33902344 22.74703125 42.67804688 22.1015625 43.02734375 C14.55542574 46.48200973 5.37521639 46.20606967 -2.3125 43.375 C-9.48299425 40.06374737 -15.13768536 35.95216635 -19 29 C-20.65756259 24.02731224 -21.07208222 18.73549229 -19.12890625 13.77734375 C-14.99726988 6.74678874 -8.49678259 0 0 0 Z " fill="#FEA1AB" transform="translate(167,253)"/>
<path d="M0 0 C7.27767801 3.06428548 12.08059833 7.13433054 16.171875 13.953125 C17.99661147 18.46332269 17.70547393 23.60054377 16.34765625 28.21875 C12.56425336 36.66239593 5.65675488 40.84659538 -2.7578125 44.078125 C-13.00987917 46.99317046 -21.7915025 45.00642711 -31 40 C-36.43313413 36.78242672 -39.79277495 31.83541044 -42 26 C-42.82748363 20.74505243 -42.11588893 16.86059626 -40 12 C-39.42668945 12.02618408 -38.85337891 12.05236816 -38.26269531 12.0793457 C-20.36518228 12.95330445 -20.36518228 12.95330445 -4.7265625 5.109375 C-3.0416166 3.47104816 -1.48734569 1.81728506 0 0 Z " fill="#FEA1AA" transform="translate(348,253)"/>
<path d="M0 0 C0.69134033 -0.00336868 1.38268066 -0.00673737 2.0949707 -0.01020813 C3.55069448 -0.0099103 5.00648273 0.00524427 6.46191406 0.03442383 C8.68229701 0.07412572 10.89670544 0.05512215 13.1171875 0.02929688 C14.53648135 0.03685675 15.95576203 0.04781103 17.375 0.0625 C18.65761719 0.07450439 19.94023437 0.08650879 21.26171875 0.09887695 C25.53595828 0.92588382 27.03768636 2.36929608 29.6875 5.76171875 C30.59455375 11.54418642 29.17277322 17.4967497 26.6875 22.76171875 C23.78519927 26.16488935 20.93099808 28.34721939 16.6875 29.76171875 C0.11292599 31.05228625 0.11292599 31.05228625 -5.83203125 26.3671875 C-10.42963686 21.38139355 -11.76284707 15.83237367 -12.72265625 9.25390625 C-11.52669504 1.98701811 -6.66972991 0.00209476 0 0 Z " fill="#48535E" transform="translate(310.3125,221.23828125)"/>
<path d="M0 0 C0.69275528 -0.0038269 1.38551056 -0.00765381 2.09925842 -0.01159668 C3.56089739 -0.01431212 5.02258526 -0.00697639 6.48413086 0.00976562 C8.71253779 0.03115289 10.93770961 0.00997357 13.16601562 -0.015625 C14.58985082 -0.01298102 16.01368401 -0.00785457 17.4375 0 C18.72648193 0.00451172 20.01546387 0.00902344 21.34350586 0.01367188 C25.31885448 0.61151107 26.98730831 1.69563768 29.78515625 4.53125 C31.39779751 10.33074869 29.67205088 16.30381953 27.0625 21.55078125 C24.47818397 25.55765657 21.34492884 28.0113258 16.78515625 29.53125 C0.13016154 30.8280794 0.13016154 30.8280794 -5.73046875 26.19921875 C-10.77277677 20.53325685 -11.66087846 14.39349294 -11.74609375 7.01171875 C-10.36704354 0.57277107 -5.87066466 0.02056661 0 0 Z " fill="#48545E" transform="translate(186.21484375,221.46875)"/>
<path d="M0 0 C0.9075 0.845625 1.815 1.69125 2.75 2.5625 C5.54454564 5.14670349 7.7251776 5.44007333 11.5 5.5625 C17.72192885 5.28314809 20.63647526 3.36352474 25 -1 C29.03143083 -1.62711146 30.56402878 -1.30610745 33.9375 1.0625 C36 4 36 4 36.3125 7.375 C34.06455607 13.58360703 29.47582706 16.74000715 23.71484375 19.671875 C15.8365238 22.48851936 6.04612104 22.464586 -1.625 18.9375 C-5.86318884 16.39171821 -9.72244412 13.47887558 -12 9 C-12.13156684 5.05299487 -11.87232815 3.07363464 -9.375 0 C-5.82274138 -1.49568784 -3.68968026 -1.01784283 0 0 Z " fill="#050402" transform="translate(244,245)"/>
</svg>
