<?xml version="1.0" encoding="UTF-8"?>
<svg version="1.1" xmlns="http://www.w3.org/2000/svg" width="512" height="512">
<path d="M0 0 C0.94617188 -0.03351563 1.89234375 -0.06703125 2.8671875 -0.1015625 C12.20840954 1.98173162 17.32331609 9.07454784 22.57421875 16.48828125 C36.25163168 34.67822826 36.25163168 34.67822826 55.125 46.625 C72.59285665 48.71788408 91.63963662 41.06134906 107.67437744 34.81948853 C114.45040873 32.21478019 118.97874446 30.97951897 126.125 32.625 C131.36967638 35.39577243 135.16486906 38.84099424 137.12786865 44.53292847 C137.36636536 45.60213531 137.60486206 46.67134216 137.85058594 47.77294922 C138.13319275 48.99126434 138.41579956 50.20957947 138.70697021 51.46481323 C138.85247063 52.11063229 138.99797104 52.75645134 139.14788055 53.42184067 C139.94328655 56.88245307 140.82987831 60.32008694 141.703125 63.76171875 C142.80772243 68.12384332 143.88368535 72.48585132 144.84375 76.88232422 C147.78565164 92.82502223 147.78565164 92.82502223 156.62371826 105.56692505 C162.51489076 108.4479355 168.63830787 109.4389103 175.10302734 110.21496582 C179.5820132 110.82269379 183.80688818 112.07878095 188.1328125 113.35546875 C189.66678111 113.77455388 191.20193024 114.18934408 192.73828125 114.59960938 C193.85130615 114.89967896 193.85130615 114.89967896 194.98681641 115.20581055 C196.52701777 115.61869085 198.06807163 116.02840117 199.60986328 116.43530273 C201.91200745 117.04449794 204.21004034 117.6675151 206.5078125 118.29296875 C207.18901154 118.46910202 207.87021057 118.64523529 208.572052 118.82670593 C214.30660052 120.40846602 218.55061547 122.79530987 222.4375 127.3125 C225.06671902 132.47355956 225.8474461 136.95675976 224.33712769 142.53488159 C223.10732119 145.91263485 221.7905221 149.24860694 220.46484375 152.58984375 C210.07703253 178.47058724 210.07703253 178.47058724 211.52233887 205.17919922 C219.91254366 219.6358111 234.26699757 230.32921813 247.57739258 239.95874023 C252.60700882 243.7377249 255.4592629 247.31360636 256.7265625 253.6171875 C256.73429688 254.56851563 256.74203125 255.51984375 256.75 256.5 C256.78351562 257.44617188 256.81703125 258.39234375 256.8515625 259.3671875 C254.76826838 268.70840954 247.67545216 273.82331609 240.26171875 279.07421875 C222.07177174 292.75163168 222.07177174 292.75163168 210.125 311.625 C208.03211592 329.09285665 215.68865094 348.13963662 221.93051147 364.17437744 C224.53521981 370.95040873 225.77048103 375.47874446 224.125 382.625 C221.35422757 387.86967638 217.90900576 391.66486906 212.21707153 393.62786865 C211.14786469 393.86636536 210.07865784 394.10486206 208.97705078 394.35058594 C207.75873566 394.63319275 206.54042053 394.91579956 205.28518677 395.20697021 C204.63936771 395.35247063 203.99354866 395.49797104 203.32815933 395.64788055 C199.86754693 396.44328655 196.42991306 397.32987831 192.98828125 398.203125 C188.62615668 399.30772243 184.26414868 400.38368535 179.86767578 401.34375 C163.92497777 404.28565164 163.92497777 404.28565164 151.18307495 413.12371826 C148.3020645 419.01489076 147.3110897 425.13830787 146.53503418 431.60302734 C145.92730621 436.0820132 144.67121905 440.30688818 143.39453125 444.6328125 C142.97544612 446.16678111 142.56065592 447.70193024 142.15039062 449.23828125 C141.95034424 449.98029785 141.75029785 450.72231445 141.54418945 451.48681641 C141.13130915 453.02701777 140.72159883 454.56807163 140.31469727 456.10986328 C139.70550206 458.41200745 139.0824849 460.71004034 138.45703125 463.0078125 C138.28089798 463.68901154 138.10476471 464.37021057 137.92329407 465.072052 C136.34153398 470.80660052 133.95469013 475.05061547 129.4375 478.9375 C124.27644044 481.56671902 119.79324024 482.3474461 114.21511841 480.83712769 C110.83736515 479.60732119 107.50139306 478.2905221 104.16015625 476.96484375 C78.27941276 466.57703253 78.27941276 466.57703253 51.57080078 468.02233887 C37.1141889 476.41254366 26.42078187 490.76699757 16.79125977 504.07739258 C13.0122751 509.10700882 9.43639364 511.9592629 3.1328125 513.2265625 C2.18148438 513.23429688 1.23015625 513.24203125 0.25 513.25 C-0.69617188 513.28351562 -1.64234375 513.31703125 -2.6171875 513.3515625 C-11.95840954 511.26826838 -17.07331609 504.17545216 -22.32421875 496.76171875 C-36.00163168 478.57177174 -36.00163168 478.57177174 -54.875 466.625 C-72.34285665 464.53211592 -91.38963662 472.18865094 -107.42437744 478.43051147 C-114.2052805 481.03709252 -118.7228973 482.25192711 -125.875 480.625 C-132.30249513 477.53485811 -135.56092262 472.34753209 -137.88659668 465.75933838 C-138.861669 462.40875213 -139.74999927 459.0461657 -140.609375 455.6640625 C-140.93286926 454.43714691 -141.25636353 453.21023132 -141.58966064 451.94613647 C-142.44054538 448.71068785 -143.27997297 445.47272899 -144.11346436 442.23278809 C-145.29624971 437.6481365 -146.50167925 433.06936571 -147.70318604 428.48959351 C-148.34034064 426.0555714 -148.97370945 423.62055458 -149.60296631 421.18447876 C-149.8870636 420.08928925 -150.17116089 418.99409973 -150.46386719 417.86572266 C-150.71303894 416.89945953 -150.96221069 415.93319641 -151.21893311 414.93765259 C-151.79753307 412.62482353 -151.79753307 412.62482353 -152.875 410.625 C-155.41767046 409.66271832 -155.41767046 409.66271832 -158.56884766 408.84082031 C-159.7874649 408.49996399 -161.00608215 408.15910767 -162.2616272 407.80792236 C-163.24533735 407.53838619 -163.24533735 407.53838619 -164.24892044 407.26340485 C-166.30341607 406.69918311 -168.35434803 406.12345318 -170.40463257 405.54412842 C-176.23579774 403.89803037 -182.07117133 402.26751948 -187.91259766 400.65820312 C-191.48450045 399.67325372 -195.05087162 398.67007261 -198.6145134 397.65566254 C-199.96882525 397.27403424 -201.32509213 396.89926975 -202.68330765 396.53177643 C-211.20810522 394.22299599 -218.19900085 392.18482142 -223.28515625 384.4921875 C-226.55999314 374.49118861 -222.59085188 363.90373447 -219.8359375 354.12890625 C-219.55021881 353.09233383 -219.26450012 352.05576141 -218.97012329 350.98777771 C-217.76229674 346.60625042 -216.54040641 342.22868164 -215.31933594 337.85083008 C-214.42387116 334.63242712 -213.53594714 331.41201029 -212.6484375 328.19140625 C-212.37035248 327.20491592 -212.09226746 326.2184256 -211.80575562 325.20204163 C-211.55194122 324.28015549 -211.29812683 323.35826935 -211.03662109 322.40844727 C-210.8117099 321.60302994 -210.58679871 320.79761261 -210.35507202 319.9677887 C-209.83234022 317.41681695 -209.66342589 315.22149801 -209.875 312.625 C-211.78656601 310.03882726 -211.78656601 310.03882726 -214.44140625 307.60546875 C-214.91311752 307.14320389 -215.3848288 306.68093903 -215.87083435 306.20466614 C-217.38167831 304.72834012 -218.90855511 303.27005072 -220.4375 301.8125 C-222.42264488 299.89411504 -224.40118203 297.9689995 -226.37890625 296.04296875 C-226.86156952 295.5752153 -227.34423279 295.10746185 -227.84152222 294.62553406 C-231.16915148 291.38015799 -234.25295802 288.00091367 -237.26342773 284.46362305 C-240.61009396 280.64545257 -244.32558815 277.1742741 -247.9765625 273.65039062 C-253.36348792 268.36344089 -256.30764442 264.6644339 -256.4375 256.8125 C-256.50130859 255.07033203 -256.50130859 255.07033203 -256.56640625 253.29296875 C-254.96962698 244.82191939 -247.39587532 238.90952352 -241.4375 233.125 C-237.27206138 229.05953191 -233.15386395 225.02193712 -229.37109375 220.59375 C-226.93825404 217.75677367 -224.39651514 215.16658739 -221.65625 212.625 C-220.60050781 211.635 -220.60050781 211.635 -219.5234375 210.625 C-218.07432028 209.27600361 -216.61028245 207.9428826 -215.1328125 206.625 C-214.43929687 205.965 -213.74578125 205.305 -213.03125 204.625 C-212.40025391 204.0475 -211.76925781 203.47 -211.11914062 202.875 C-207.86181241 196.98419607 -212.11006501 187.49279695 -213.78125 181.40625 C-214.06601196 180.34893677 -214.35077393 179.29162354 -214.64416504 178.20227051 C-215.54936487 174.8417828 -216.46132117 171.48319157 -217.375 168.125 C-218.57905355 163.69954725 -219.77603429 159.2722702 -220.96875 154.84375 C-221.24481079 153.83832153 -221.52087158 152.83289307 -221.80529785 151.79699707 C-225.81728723 136.89307603 -225.81728723 136.89307603 -223.875 131 C-223.66875 130.30648437 -223.4625 129.61296875 -223.25 128.8984375 C-218.48589078 121.02141601 -210.85553567 118.91722531 -202.40625 116.609375 C-201.21197388 116.26747131 -200.01769775 115.92556763 -198.78723145 115.57330322 C-195.63049767 114.67312515 -192.46986526 113.78896674 -189.30645752 112.91259766 C-186.1002299 112.02018328 -182.90013766 111.10658574 -179.69921875 110.1953125 C-175.0047931 108.86170545 -170.30802268 107.53726101 -165.60742188 106.22558594 C-164.60844879 105.94227417 -163.60947571 105.6589624 -162.58023071 105.36706543 C-160.93374581 104.91542206 -159.27923111 104.49046091 -157.61386108 104.11437988 C-154.03295082 103.31021854 -154.03295082 103.31021854 -151.58056641 100.734375 C-151.38124512 99.95578125 -151.18192383 99.1771875 -150.9765625 98.375 C-150.7295459 97.47265625 -150.4825293 96.5703125 -150.22802734 95.640625 C-149.98777832 94.64546875 -149.7475293 93.6503125 -149.5 92.625 C-149.22236816 91.58859375 -148.94473633 90.5521875 -148.65869141 89.484375 C-147.87463555 86.53505608 -147.11851505 83.58018202 -146.3762207 80.62011719 C-144.88953075 74.70232358 -143.36360564 68.79464386 -141.83074951 62.88867188 C-141.2598316 60.66332206 -140.70822343 58.43383824 -140.15869141 56.203125 C-138.00959109 47.6711247 -135.95809292 40.24410508 -129.125 34.1875 C-123.96412652 31.70631083 -119.48662445 30.91838057 -113.96487427 32.41238403 C-110.58737048 33.64272121 -107.25134465 34.95949711 -103.91015625 36.28515625 C-78.02941276 46.67296747 -78.02941276 46.67296747 -51.32080078 45.22766113 C-36.8641889 36.83745634 -26.17078187 22.48300243 -16.54125977 9.17260742 C-12.16963804 3.35422455 -7.53345932 0.06124764 0 0 Z " fill="#FEDB00" transform="translate(255.875,-0.625)"/>
<path d="M0 0 C0.94617188 -0.03351563 1.89234375 -0.06703125 2.8671875 -0.1015625 C12.20840954 1.98173162 17.32331609 9.07454784 22.57421875 16.48828125 C36.25163168 34.67822826 36.25163168 34.67822826 55.125 46.625 C72.59285665 48.71788408 91.63963662 41.06134906 107.67437744 34.81948853 C114.45040873 32.21478019 118.97874446 30.97951897 126.125 32.625 C131.36967638 35.39577243 135.16486906 38.84099424 137.12786865 44.53292847 C137.36636536 45.60213531 137.60486206 46.67134216 137.85058594 47.77294922 C138.13319275 48.99126434 138.41579956 50.20957947 138.70697021 51.46481323 C138.85247063 52.11063229 138.99797104 52.75645134 139.14788055 53.42184067 C139.94328655 56.88245307 140.82987831 60.32008694 141.703125 63.76171875 C142.80772243 68.12384332 143.88368535 72.48585132 144.84375 76.88232422 C147.78565164 92.82502223 147.78565164 92.82502223 156.62371826 105.56692505 C162.51489076 108.4479355 168.63830787 109.4389103 175.10302734 110.21496582 C179.5820132 110.82269379 183.80688818 112.07878095 188.1328125 113.35546875 C189.66678111 113.77455388 191.20193024 114.18934408 192.73828125 114.59960938 C193.85130615 114.89967896 193.85130615 114.89967896 194.98681641 115.20581055 C196.52701777 115.61869085 198.06807163 116.02840117 199.60986328 116.43530273 C201.91200745 117.04449794 204.21004034 117.6675151 206.5078125 118.29296875 C207.18901154 118.46910202 207.87021057 118.64523529 208.572052 118.82670593 C214.30660052 120.40846602 218.55061547 122.79530987 222.4375 127.3125 C225.06671902 132.47355956 225.8474461 136.95675976 224.33712769 142.53488159 C223.10732119 145.91263485 221.7905221 149.24860694 220.46484375 152.58984375 C210.07703253 178.47058724 210.07703253 178.47058724 211.52233887 205.17919922 C219.91254366 219.6358111 234.26699757 230.32921813 247.57739258 239.95874023 C252.60700882 243.7377249 255.4592629 247.31360636 256.7265625 253.6171875 C256.73429688 254.56851563 256.74203125 255.51984375 256.75 256.5 C256.78351562 257.44617188 256.81703125 258.39234375 256.8515625 259.3671875 C254.76826838 268.70840954 247.67545216 273.82331609 240.26171875 279.07421875 C222.07177174 292.75163168 222.07177174 292.75163168 210.125 311.625 C208.03211592 329.09285665 215.68865094 348.13963662 221.93051147 364.17437744 C224.53521981 370.95040873 225.77048103 375.47874446 224.125 382.625 C221.35422757 387.86967638 217.90900576 391.66486906 212.21707153 393.62786865 C211.14786469 393.86636536 210.07865784 394.10486206 208.97705078 394.35058594 C207.75873566 394.63319275 206.54042053 394.91579956 205.28518677 395.20697021 C204.63936771 395.35247063 203.99354866 395.49797104 203.32815933 395.64788055 C199.86754693 396.44328655 196.42991306 397.32987831 192.98828125 398.203125 C188.62615668 399.30772243 184.26414868 400.38368535 179.86767578 401.34375 C163.92497777 404.28565164 163.92497777 404.28565164 151.18307495 413.12371826 C148.3020645 419.01489076 147.3110897 425.13830787 146.53503418 431.60302734 C145.92730621 436.0820132 144.67121905 440.30688818 143.39453125 444.6328125 C142.97544612 446.16678111 142.56065592 447.70193024 142.15039062 449.23828125 C141.95034424 449.98029785 141.75029785 450.72231445 141.54418945 451.48681641 C141.13130915 453.02701777 140.72159883 454.56807163 140.31469727 456.10986328 C139.70550206 458.41200745 139.0824849 460.71004034 138.45703125 463.0078125 C138.28089798 463.68901154 138.10476471 464.37021057 137.92329407 465.072052 C136.34153398 470.80660052 133.95469013 475.05061547 129.4375 478.9375 C124.27644044 481.56671902 119.79324024 482.3474461 114.21511841 480.83712769 C110.83736515 479.60732119 107.50139306 478.2905221 104.16015625 476.96484375 C78.27941276 466.57703253 78.27941276 466.57703253 51.57080078 468.02233887 C37.1141889 476.41254366 26.42078187 490.76699757 16.79125977 504.07739258 C13.0122751 509.10700882 9.43639364 511.9592629 3.1328125 513.2265625 C2.18148438 513.23429688 1.23015625 513.24203125 0.25 513.25 C-0.69617188 513.28351562 -1.64234375 513.31703125 -2.6171875 513.3515625 C-11.95840954 511.26826838 -17.07331609 504.17545216 -22.32421875 496.76171875 C-36.00163168 478.57177174 -36.00163168 478.57177174 -54.875 466.625 C-72.34285665 464.53211592 -91.38963662 472.18865094 -107.42437744 478.43051147 C-114.2052805 481.03709252 -118.7228973 482.25192711 -125.875 480.625 C-132.30249513 477.53485811 -135.56092262 472.34753209 -137.88659668 465.75933838 C-138.861669 462.40875213 -139.74999927 459.0461657 -140.609375 455.6640625 C-140.93286926 454.43714691 -141.25636353 453.21023132 -141.58966064 451.94613647 C-142.44054538 448.71068785 -143.27997297 445.47272899 -144.11346436 442.23278809 C-145.29624971 437.6481365 -146.50167925 433.06936571 -147.70318604 428.48959351 C-148.34034064 426.0555714 -148.97370945 423.62055458 -149.60296631 421.18447876 C-149.8870636 420.08928925 -150.17116089 418.99409973 -150.46386719 417.86572266 C-150.71303894 416.89945953 -150.96221069 415.93319641 -151.21893311 414.93765259 C-151.79753307 412.62482353 -151.79753307 412.62482353 -152.875 410.625 C-155.41767046 409.66271832 -155.41767046 409.66271832 -158.56884766 408.84082031 C-159.7874649 408.49996399 -161.00608215 408.15910767 -162.2616272 407.80792236 C-163.24533735 407.53838619 -163.24533735 407.53838619 -164.24892044 407.26340485 C-166.30341607 406.69918311 -168.35434803 406.12345318 -170.40463257 405.54412842 C-176.23579774 403.89803037 -182.07117133 402.26751948 -187.91259766 400.65820312 C-191.48450045 399.67325372 -195.05087162 398.67007261 -198.6145134 397.65566254 C-199.96882525 397.27403424 -201.32509213 396.89926975 -202.68330765 396.53177643 C-211.20810522 394.22299599 -218.19900085 392.18482142 -223.28515625 384.4921875 C-226.55999314 374.49118861 -222.59085188 363.90373447 -219.8359375 354.12890625 C-219.55021881 353.09233383 -219.26450012 352.05576141 -218.97012329 350.98777771 C-217.76229674 346.60625042 -216.54040641 342.22868164 -215.31933594 337.85083008 C-214.42387116 334.63242712 -213.53594714 331.41201029 -212.6484375 328.19140625 C-212.37035248 327.20491592 -212.09226746 326.2184256 -211.80575562 325.20204163 C-211.55194122 324.28015549 -211.29812683 323.35826935 -211.03662109 322.40844727 C-210.8117099 321.60302994 -210.58679871 320.79761261 -210.35507202 319.9677887 C-209.83234022 317.41681695 -209.66342589 315.22149801 -209.875 312.625 C-211.78656601 310.03882726 -211.78656601 310.03882726 -214.44140625 307.60546875 C-214.91311752 307.14320389 -215.3848288 306.68093903 -215.87083435 306.20466614 C-217.38167831 304.72834012 -218.90855511 303.27005072 -220.4375 301.8125 C-222.42264488 299.89411504 -224.40118203 297.9689995 -226.37890625 296.04296875 C-226.86156952 295.5752153 -227.34423279 295.10746185 -227.84152222 294.62553406 C-231.16915148 291.38015799 -234.25295802 288.00091367 -237.26342773 284.46362305 C-240.61009396 280.64545257 -244.32558815 277.1742741 -247.9765625 273.65039062 C-253.36348792 268.36344089 -256.30764442 264.6644339 -256.4375 256.8125 C-256.50130859 255.07033203 -256.50130859 255.07033203 -256.56640625 253.29296875 C-254.96962698 244.82191939 -247.39587532 238.90952352 -241.4375 233.125 C-237.27206138 229.05953191 -233.15386395 225.02193712 -229.37109375 220.59375 C-226.93825404 217.75677367 -224.39651514 215.16658739 -221.65625 212.625 C-220.60050781 211.635 -220.60050781 211.635 -219.5234375 210.625 C-218.07432028 209.27600361 -216.61028245 207.9428826 -215.1328125 206.625 C-214.43929687 205.965 -213.74578125 205.305 -213.03125 204.625 C-212.40025391 204.0475 -211.76925781 203.47 -211.11914062 202.875 C-207.86181241 196.98419607 -212.11006501 187.49279695 -213.78125 181.40625 C-214.06601196 180.34893677 -214.35077393 179.29162354 -214.64416504 178.20227051 C-215.54936487 174.8417828 -216.46132117 171.48319157 -217.375 168.125 C-218.57905355 163.69954725 -219.77603429 159.2722702 -220.96875 154.84375 C-221.24481079 153.83832153 -221.52087158 152.83289307 -221.80529785 151.79699707 C-225.81728723 136.89307603 -225.81728723 136.89307603 -223.875 131 C-223.66875 130.30648437 -223.4625 129.61296875 -223.25 128.8984375 C-218.48589078 121.02141601 -210.85553567 118.91722531 -202.40625 116.609375 C-201.21197388 116.26747131 -200.01769775 115.92556763 -198.78723145 115.57330322 C-195.63049767 114.67312515 -192.46986526 113.78896674 -189.30645752 112.91259766 C-186.1002299 112.02018328 -182.90013766 111.10658574 -179.69921875 110.1953125 C-175.0047931 108.86170545 -170.30802268 107.53726101 -165.60742188 106.22558594 C-164.60844879 105.94227417 -163.60947571 105.6589624 -162.58023071 105.36706543 C-160.93374581 104.91542206 -159.27923111 104.49046091 -157.61386108 104.11437988 C-154.03295082 103.31021854 -154.03295082 103.31021854 -151.58056641 100.734375 C-151.38124512 99.95578125 -151.18192383 99.1771875 -150.9765625 98.375 C-150.7295459 97.47265625 -150.4825293 96.5703125 -150.22802734 95.640625 C-149.98777832 94.64546875 -149.7475293 93.6503125 -149.5 92.625 C-149.22236816 91.58859375 -148.94473633 90.5521875 -148.65869141 89.484375 C-147.87463555 86.53505608 -147.11851505 83.58018202 -146.3762207 80.62011719 C-144.88953075 74.70232358 -143.36360564 68.79464386 -141.83074951 62.88867188 C-141.2598316 60.66332206 -140.70822343 58.43383824 -140.15869141 56.203125 C-138.00959109 47.6711247 -135.95809292 40.24410508 -129.125 34.1875 C-123.96412652 31.70631083 -119.48662445 30.91838057 -113.96487427 32.41238403 C-110.58737048 33.64272121 -107.25134465 34.95949711 -103.91015625 36.28515625 C-78.02941276 46.67296747 -78.02941276 46.67296747 -51.32080078 45.22766113 C-36.8641889 36.83745634 -26.17078187 22.48300243 -16.54125977 9.17260742 C-12.16963804 3.35422455 -7.53345932 0.06124764 0 0 Z M-127.9375 142.8125 C-152.52722479 170.63037343 -168.93659751 207.36728885 -170.875 244.625 C-170.91882813 245.45725098 -170.96265625 246.28950195 -171.0078125 247.14697266 C-173.02621195 293.39355012 -157.08239734 337.46785104 -126.31884766 371.85913086 C-99.150123 401.45410629 -59.5852282 424.25775685 -18.77804565 426.75323486 C-13.20722988 426.98756069 -7.63749532 427.01389085 -2.0625 427 C-1.20327942 426.99912384 -0.34405884 426.99824768 0.54119873 426.99734497 C35.28505061 426.88075486 69.95127714 417.80670405 98.125 396.625 C99.16269531 395.86832031 100.20039063 395.11164063 101.26953125 394.33203125 C131.9436828 371.64751119 152.86950275 341.04792649 164.125 304.625 C164.38643799 303.79492432 164.64787598 302.96484863 164.91723633 302.10961914 C169.73465365 286.52560916 170.43063331 271.08941586 170.5 254.875 C170.50776459 254.04505524 170.51552917 253.21511047 170.52352905 252.36001587 C170.60672853 241.06202869 169.62850065 230.65629316 167.125 219.625 C166.93695801 218.73796387 166.74891602 217.85092773 166.55517578 216.93701172 C159.91003776 186.49903805 143.76787414 160.51199333 123.125 137.625 C122.11179687 136.50158203 122.11179687 136.50158203 121.078125 135.35546875 C91.94148984 104.78690494 47.58006084 86.87467266 5.78515625 85.40234375 C-46.13897835 84.25202719 -92.51475834 105.46583947 -127.9375 142.8125 Z " fill="#FC9600" transform="translate(255.875,-0.625)"/>
<path d="M0 0 C0.94617188 -0.03351563 1.89234375 -0.06703125 2.8671875 -0.1015625 C12.20840954 1.98173162 17.32331609 9.07454784 22.57421875 16.48828125 C36.25163168 34.67822826 36.25163168 34.67822826 55.125 46.625 C72.59285665 48.71788408 91.63963662 41.06134906 107.67437744 34.81948853 C114.45040873 32.21478019 118.97874446 30.97951897 126.125 32.625 C131.36967638 35.39577243 135.16486906 38.84099424 137.12786865 44.53292847 C137.36636536 45.60213531 137.60486206 46.67134216 137.85058594 47.77294922 C138.13319275 48.99126434 138.41579956 50.20957947 138.70697021 51.46481323 C138.85247063 52.11063229 138.99797104 52.75645134 139.14788055 53.42184067 C139.94328655 56.88245307 140.82987831 60.32008694 141.703125 63.76171875 C142.80772243 68.12384332 143.88368535 72.48585132 144.84375 76.88232422 C147.78565164 92.82502223 147.78565164 92.82502223 156.62371826 105.56692505 C162.51489076 108.4479355 168.63830787 109.4389103 175.10302734 110.21496582 C179.5820132 110.82269379 183.80688818 112.07878095 188.1328125 113.35546875 C189.66678111 113.77455388 191.20193024 114.18934408 192.73828125 114.59960938 C193.85130615 114.89967896 193.85130615 114.89967896 194.98681641 115.20581055 C196.52701777 115.61869085 198.06807163 116.02840117 199.60986328 116.43530273 C201.91200745 117.04449794 204.21004034 117.6675151 206.5078125 118.29296875 C207.18901154 118.46910202 207.87021057 118.64523529 208.572052 118.82670593 C214.30660052 120.40846602 218.55061547 122.79530987 222.4375 127.3125 C225.06671902 132.47355956 225.8474461 136.95675976 224.33712769 142.53488159 C223.10732119 145.91263485 221.7905221 149.24860694 220.46484375 152.58984375 C210.07703253 178.47058724 210.07703253 178.47058724 211.52233887 205.17919922 C219.91254366 219.6358111 234.26699757 230.32921813 247.57739258 239.95874023 C252.60700882 243.7377249 255.4592629 247.31360636 256.7265625 253.6171875 C256.73429688 254.56851563 256.74203125 255.51984375 256.75 256.5 C256.78351562 257.44617188 256.81703125 258.39234375 256.8515625 259.3671875 C254.76826838 268.70840954 247.67545216 273.82331609 240.26171875 279.07421875 C222.07177174 292.75163168 222.07177174 292.75163168 210.125 311.625 C208.03211592 329.09285665 215.68865094 348.13963662 221.93051147 364.17437744 C224.53521981 370.95040873 225.77048103 375.47874446 224.125 382.625 C221.35422757 387.86967638 217.90900576 391.66486906 212.21707153 393.62786865 C211.14786469 393.86636536 210.07865784 394.10486206 208.97705078 394.35058594 C207.75873566 394.63319275 206.54042053 394.91579956 205.28518677 395.20697021 C204.63936771 395.35247063 203.99354866 395.49797104 203.32815933 395.64788055 C199.86754693 396.44328655 196.42991306 397.32987831 192.98828125 398.203125 C188.62615668 399.30772243 184.26414868 400.38368535 179.86767578 401.34375 C163.92497777 404.28565164 163.92497777 404.28565164 151.18307495 413.12371826 C148.3020645 419.01489076 147.3110897 425.13830787 146.53503418 431.60302734 C145.92730621 436.0820132 144.67121905 440.30688818 143.39453125 444.6328125 C142.97544612 446.16678111 142.56065592 447.70193024 142.15039062 449.23828125 C141.95034424 449.98029785 141.75029785 450.72231445 141.54418945 451.48681641 C141.13130915 453.02701777 140.72159883 454.56807163 140.31469727 456.10986328 C139.70550206 458.41200745 139.0824849 460.71004034 138.45703125 463.0078125 C138.28089798 463.68901154 138.10476471 464.37021057 137.92329407 465.072052 C136.34153398 470.80660052 133.95469013 475.05061547 129.4375 478.9375 C124.27644044 481.56671902 119.79324024 482.3474461 114.21511841 480.83712769 C110.83736515 479.60732119 107.50139306 478.2905221 104.16015625 476.96484375 C78.27941276 466.57703253 78.27941276 466.57703253 51.57080078 468.02233887 C37.1141889 476.41254366 26.42078187 490.76699757 16.79125977 504.07739258 C13.0122751 509.10700882 9.43639364 511.9592629 3.1328125 513.2265625 C2.18148438 513.23429688 1.23015625 513.24203125 0.25 513.25 C-0.69617188 513.28351562 -1.64234375 513.31703125 -2.6171875 513.3515625 C-11.95840954 511.26826838 -17.07331609 504.17545216 -22.32421875 496.76171875 C-36.00163168 478.57177174 -36.00163168 478.57177174 -54.875 466.625 C-72.34285665 464.53211592 -91.38963662 472.18865094 -107.42437744 478.43051147 C-114.2052805 481.03709252 -118.7228973 482.25192711 -125.875 480.625 C-132.30249513 477.53485811 -135.56092262 472.34753209 -137.88659668 465.75933838 C-138.861669 462.40875213 -139.74999927 459.0461657 -140.609375 455.6640625 C-140.93286926 454.43714691 -141.25636353 453.21023132 -141.58966064 451.94613647 C-142.44054538 448.71068785 -143.27997297 445.47272899 -144.11346436 442.23278809 C-145.29624971 437.6481365 -146.50167925 433.06936571 -147.70318604 428.48959351 C-148.34034064 426.0555714 -148.97370945 423.62055458 -149.60296631 421.18447876 C-149.8870636 420.08928925 -150.17116089 418.99409973 -150.46386719 417.86572266 C-150.71303894 416.89945953 -150.96221069 415.93319641 -151.21893311 414.93765259 C-151.79753307 412.62482353 -151.79753307 412.62482353 -152.875 410.625 C-155.41767046 409.66271832 -155.41767046 409.66271832 -158.56884766 408.84082031 C-159.7874649 408.49996399 -161.00608215 408.15910767 -162.2616272 407.80792236 C-163.24533735 407.53838619 -163.24533735 407.53838619 -164.24892044 407.26340485 C-166.30341607 406.69918311 -168.35434803 406.12345318 -170.40463257 405.54412842 C-176.23579774 403.89803037 -182.07117133 402.26751948 -187.91259766 400.65820312 C-191.48450045 399.67325372 -195.05087162 398.67007261 -198.6145134 397.65566254 C-199.96882525 397.27403424 -201.32509213 396.89926975 -202.68330765 396.53177643 C-211.20810522 394.22299599 -218.19900085 392.18482142 -223.28515625 384.4921875 C-226.55999314 374.49118861 -222.59085188 363.90373447 -219.8359375 354.12890625 C-219.55021881 353.09233383 -219.26450012 352.05576141 -218.97012329 350.98777771 C-217.76229674 346.60625042 -216.54040641 342.22868164 -215.31933594 337.85083008 C-214.42387116 334.63242712 -213.53594714 331.41201029 -212.6484375 328.19140625 C-212.37035248 327.20491592 -212.09226746 326.2184256 -211.80575562 325.20204163 C-211.55194122 324.28015549 -211.29812683 323.35826935 -211.03662109 322.40844727 C-210.8117099 321.60302994 -210.58679871 320.79761261 -210.35507202 319.9677887 C-209.83234022 317.41681695 -209.66342589 315.22149801 -209.875 312.625 C-211.78656601 310.03882726 -211.78656601 310.03882726 -214.44140625 307.60546875 C-214.91311752 307.14320389 -215.3848288 306.68093903 -215.87083435 306.20466614 C-217.38167831 304.72834012 -218.90855511 303.27005072 -220.4375 301.8125 C-222.42264488 299.89411504 -224.40118203 297.9689995 -226.37890625 296.04296875 C-226.86156952 295.5752153 -227.34423279 295.10746185 -227.84152222 294.62553406 C-231.16915148 291.38015799 -234.25295802 288.00091367 -237.26342773 284.46362305 C-240.61009396 280.64545257 -244.32558815 277.1742741 -247.9765625 273.65039062 C-253.36348792 268.36344089 -256.30764442 264.6644339 -256.4375 256.8125 C-256.50130859 255.07033203 -256.50130859 255.07033203 -256.56640625 253.29296875 C-254.96962698 244.82191939 -247.39587532 238.90952352 -241.4375 233.125 C-237.27206138 229.05953191 -233.15386395 225.02193712 -229.37109375 220.59375 C-226.93825404 217.75677367 -224.39651514 215.16658739 -221.65625 212.625 C-220.60050781 211.635 -220.60050781 211.635 -219.5234375 210.625 C-218.07432028 209.27600361 -216.61028245 207.9428826 -215.1328125 206.625 C-214.43929687 205.965 -213.74578125 205.305 -213.03125 204.625 C-212.40025391 204.0475 -211.76925781 203.47 -211.11914062 202.875 C-207.86181241 196.98419607 -212.11006501 187.49279695 -213.78125 181.40625 C-214.06601196 180.34893677 -214.35077393 179.29162354 -214.64416504 178.20227051 C-215.54936487 174.8417828 -216.46132117 171.48319157 -217.375 168.125 C-218.57905355 163.69954725 -219.77603429 159.2722702 -220.96875 154.84375 C-221.24481079 153.83832153 -221.52087158 152.83289307 -221.80529785 151.79699707 C-225.81728723 136.89307603 -225.81728723 136.89307603 -223.875 131 C-223.66875 130.30648437 -223.4625 129.61296875 -223.25 128.8984375 C-218.48589078 121.02141601 -210.85553567 118.91722531 -202.40625 116.609375 C-201.21197388 116.26747131 -200.01769775 115.92556763 -198.78723145 115.57330322 C-195.63049767 114.67312515 -192.46986526 113.78896674 -189.30645752 112.91259766 C-186.1002299 112.02018328 -182.90013766 111.10658574 -179.69921875 110.1953125 C-175.0047931 108.86170545 -170.30802268 107.53726101 -165.60742188 106.22558594 C-164.60844879 105.94227417 -163.60947571 105.6589624 -162.58023071 105.36706543 C-160.93374581 104.91542206 -159.27923111 104.49046091 -157.61386108 104.11437988 C-154.03295082 103.31021854 -154.03295082 103.31021854 -151.58056641 100.734375 C-151.38124512 99.95578125 -151.18192383 99.1771875 -150.9765625 98.375 C-150.7295459 97.47265625 -150.4825293 96.5703125 -150.22802734 95.640625 C-149.98777832 94.64546875 -149.7475293 93.6503125 -149.5 92.625 C-149.22236816 91.58859375 -148.94473633 90.5521875 -148.65869141 89.484375 C-147.87463555 86.53505608 -147.11851505 83.58018202 -146.3762207 80.62011719 C-144.88953075 74.70232358 -143.36360564 68.79464386 -141.83074951 62.88867188 C-141.2598316 60.66332206 -140.70822343 58.43383824 -140.15869141 56.203125 C-138.00959109 47.6711247 -135.95809292 40.24410508 -129.125 34.1875 C-123.96412652 31.70631083 -119.48662445 30.91838057 -113.96487427 32.41238403 C-110.58737048 33.64272121 -107.25134465 34.95949711 -103.91015625 36.28515625 C-78.02941276 46.67296747 -78.02941276 46.67296747 -51.32080078 45.22766113 C-36.8641889 36.83745634 -26.17078187 22.48300243 -16.54125977 9.17260742 C-12.16963804 3.35422455 -7.53345932 0.06124764 0 0 Z M-2.6245575 20.0272522 C-3.26883194 20.68422089 -3.91310638 21.34118958 -4.5769043 22.01806641 C-5.31164474 22.75948883 -6.04638519 23.50091125 -6.8033905 24.26480103 C-7.59401382 25.07718231 -8.38463715 25.8895636 -9.19921875 26.7265625 C-10.01945023 27.55578217 -10.8396817 28.38500183 -11.68476868 29.23934937 C-14.31788082 31.90257449 -16.94095802 34.57538842 -19.5625 37.25 C-22.16694578 39.90240402 -24.77360672 42.55246753 -27.38667297 45.19638062 C-29.01363022 46.84294957 -30.63564381 48.49442292 -32.25187683 50.15151978 C-45.65730931 63.73260933 -45.65730931 63.73260933 -53.67602539 63.87890625 C-60.42393234 63.80981014 -66.56438235 62.28344607 -73.05859375 60.5625 C-74.27652115 60.25175537 -75.49444855 59.94101074 -76.74928284 59.62084961 C-79.95420378 58.80146124 -83.15608772 57.97143486 -86.35662842 57.13513184 C-90.88479666 55.95409173 -95.41739846 54.79031199 -99.95069885 53.62915039 C-102.35725436 53.01174164 -104.76237991 52.38872612 -107.1658783 51.75952148 C-108.79391136 51.33908569 -108.79391136 51.33908569 -110.45483398 50.91015625 C-111.40760727 50.66144775 -112.36038055 50.41273926 -113.34202576 50.15649414 C-116.09610207 49.48809471 -116.09610207 49.48809471 -119.875 49.625 C-120.1992395 50.90008423 -120.1992395 50.90008423 -120.5300293 52.20092773 C-128.1628108 82.15832807 -128.1628108 82.15832807 -131.796875 94.01953125 C-132.54956777 96.5366886 -133.24790867 99.03023748 -133.890625 101.57421875 C-134.21546875 102.82847656 -134.5403125 104.08273438 -134.875 105.375 C-135.143125 106.46296875 -135.41125 107.5509375 -135.6875 108.671875 C-137.74519608 113.78904025 -141.04124469 116.40601468 -145.9140625 118.7265625 C-151.53584149 121.04168586 -157.36772701 122.50606179 -163.25 124 C-172.12485444 126.31643426 -180.8978402 128.79889166 -189.6237793 131.62304688 C-195.32948285 133.46828493 -201.06471066 135.13652138 -206.875 136.625 C-206.66746094 137.45515625 -206.45992187 138.2853125 -206.24609375 139.140625 C-205.93800781 140.37296875 -205.62992188 141.6053125 -205.3125 142.875 C-205.13976562 143.56376221 -204.96703125 144.25252441 -204.7890625 144.9621582 C-203.5784913 149.79363432 -202.38107844 154.62817649 -201.19140625 159.46484375 C-200.58595295 161.91406632 -199.98048413 164.36328505 -199.375 166.8125 C-199.09068115 167.97491211 -198.8063623 169.13732422 -198.51342773 170.33496094 C-196.80826467 177.21389275 -194.89362989 183.96918802 -192.68798828 190.70532227 C-191.18292347 196.11044841 -190.39475175 201.54982396 -192.89916992 206.75268555 C-197.19036437 213.13047236 -202.29592357 218.35847902 -207.8125 223.6875 C-213.14293518 228.88338819 -218.36065237 234.06320982 -223.2019043 239.72045898 C-226.08721554 243.00490565 -229.20114628 246.05644797 -232.3125 249.125 C-232.94865234 249.75664062 -233.58480469 250.38828125 -234.24023438 251.0390625 C-235.78282806 252.57005774 -237.32857314 254.09787667 -238.875 255.625 C-237.36658187 259.17980003 -235.29866339 261.42059622 -232.55078125 264.109375 C-231.68646484 264.96273437 -230.82214844 265.81609375 -229.93164062 266.6953125 C-229.02607422 267.57960938 -228.12050781 268.46390625 -227.1875 269.375 C-221.76702628 274.68903533 -216.45750608 279.99277657 -211.52172852 285.76220703 C-208.19109297 289.52984961 -204.50366452 292.96068689 -200.86132812 296.42382812 C-195.65318523 301.50619808 -191.7128841 305.84467129 -191.4609375 313.38671875 C-191.70226892 318.94678475 -192.99409034 324.10101058 -194.5 329.4375 C-194.76852783 330.4265332 -195.03705566 331.41556641 -195.3137207 332.43457031 C-196.15198701 335.50260061 -197.01001672 338.56440328 -197.875 341.625 C-198.14715332 342.59163574 -198.41930664 343.55827148 -198.69970703 344.55419922 C-200.19512655 349.8503632 -201.71302671 355.13982704 -203.24072266 360.42675781 C-204.08844625 363.36474983 -204.92680196 366.30503801 -205.75 369.25 C-205.97429687 370.04664063 -206.19859375 370.84328125 -206.4296875 371.6640625 C-206.98572659 373.77744129 -206.98572659 373.77744129 -206.875 376.625 C-205.94324951 376.88023437 -205.94324951 376.88023437 -204.99267578 377.140625 C-189.56508044 381.38018345 -174.23403224 385.87201856 -158.9699707 390.66772461 C-156.76297946 391.35034768 -154.54979779 392.01308906 -152.33276367 392.66235352 C-150.58829956 393.1775354 -150.58829956 393.1775354 -148.80859375 393.703125 C-147.22002563 394.16380371 -147.22002563 394.16380371 -145.59936523 394.63378906 C-140.65862347 396.43138845 -138.75140863 399.31038706 -135.875 403.625 C-135.23886295 405.72023607 -134.67022771 407.83627153 -134.140625 409.9609375 C-133.98201996 410.58839371 -133.82341492 411.21584991 -133.66000366 411.86231995 C-133.3200496 413.20846726 -132.9825524 414.55523696 -132.64727783 415.90255737 C-131.76977781 419.42655522 -130.87353469 422.94575984 -129.9765625 426.46484375 C-129.7984201 427.16482986 -129.62027771 427.86481598 -129.43673706 428.58601379 C-127.68396085 435.43842717 -125.76610132 442.23908094 -123.77832031 449.02685547 C-122.36138944 453.86956942 -121.06866017 458.72206876 -119.875 463.625 C-112.02210077 462.65511152 -104.48138631 460.82354616 -96.84375 458.8046875 C-95.84013428 458.54036926 -94.83651855 458.27605103 -93.80249023 458.00372314 C-89.59953829 456.89297133 -85.39825734 455.77663689 -81.20166016 454.64208984 C-78.10655312 453.80799855 -75.00695848 452.99267051 -71.90625 452.1796875 C-70.97776245 451.92347626 -70.0492749 451.66726501 -69.09265137 451.40328979 C-61.4830192 449.42946174 -53.12003858 447.72800863 -45.71337891 451.0378418 C-41.48126655 454.89537617 -37.4484469 458.91048731 -33.4609375 463.01953125 C-31.63063175 464.87997395 -29.79988966 466.73998745 -27.96875 468.59960938 C-25.09415363 471.52785963 -22.22525318 474.46153544 -19.36425781 477.40307617 C-16.59723207 480.24668257 -13.81045428 483.07051253 -11.0234375 485.89453125 C-10.16608002 486.78396927 -9.30872253 487.67340729 -8.42538452 488.58979797 C-7.62420197 489.39781357 -6.82301941 490.20582916 -5.99755859 491.03833008 C-5.29617767 491.75684647 -4.59479675 492.47536285 -3.87216187 493.21565247 C-2.00632532 494.83222832 -2.00632532 494.83222832 0.14993286 494.56259155 C2.54100566 493.42751639 3.99430999 492.10223356 5.84863281 490.21020508 C6.56327698 489.48887894 7.27792114 488.7675528 8.01422119 488.02436829 C9.15960358 486.84634895 9.15960358 486.84634895 10.328125 485.64453125 C11.12474548 484.83892258 11.92136597 484.0333139 12.74212646 483.20329285 C15.29365218 480.6217112 17.83510401 478.03052082 20.375 475.4375 C22.90138541 472.86313304 25.43000105 470.29112588 27.96502686 467.7252655 C29.54191612 466.12878466 31.11386319 464.52740179 32.67999268 462.92036438 C45.90408731 449.51744945 45.90408731 449.51744945 53.92602539 449.37109375 C60.67393234 449.44018986 66.81438235 450.96655393 73.30859375 452.6875 C75.13548485 453.15361694 75.13548485 453.15361694 76.99928284 453.62915039 C80.20420378 454.44853876 83.40608772 455.27856514 86.60662842 456.11486816 C91.13479666 457.29590827 95.66739846 458.45968801 100.20069885 459.62084961 C102.60725436 460.23825836 105.01237991 460.86127388 107.4158783 461.49047852 C108.50123367 461.77076904 109.58658905 462.05105957 110.70483398 462.33984375 C111.65760727 462.58855225 112.61038055 462.83726074 113.59202576 463.09350586 C116.34610207 463.76190529 116.34610207 463.76190529 120.125 463.625 C120.34115967 462.78018066 120.55731934 461.93536133 120.7800293 461.06494141 C128.89808894 429.37324401 128.89808894 429.37324401 133.125 414.625 C133.46015625 413.37332031 133.7953125 412.12164062 134.140625 410.83203125 C137.15696316 400.04742538 137.15696316 400.04742538 142.125 396.625 C148.64325911 393.28416975 155.44325452 391.20002156 162.4765625 389.2421875 C163.53483246 388.94184601 164.59310242 388.64150452 165.68344116 388.33206177 C169.03722545 387.38176978 172.39352024 386.44072175 175.75 385.5 C178.01059061 384.86129242 180.27100903 384.22197505 182.53125 383.58203125 C186.67814699 382.40882164 190.82598598 381.23908298 194.97509766 380.07373047 C199.02826301 378.9351056 203.07812532 377.78577515 207.125 376.625 C206.27152489 370.7422973 204.83444281 365.01365342 203.4375 359.2421875 C203.04365112 357.6044487 203.04365112 357.6044487 202.6418457 355.93362427 C201.80485068 352.45527568 200.96494399 348.97763752 200.125 345.5 C199.55970845 343.15238886 198.99460223 340.80473309 198.4296875 338.45703125 C197.39564321 334.16232881 196.36099042 329.86777538 195.32421875 325.57373047 C195.01230591 324.28183304 195.01230591 324.28183304 194.6940918 322.96383667 C194.32949231 321.46541645 193.95407839 319.96956147 193.56494141 318.47732544 C192.98827013 316.04931377 192.87885801 313.74366411 192.8125 311.25 C192.77511719 310.33476562 192.73773438 309.41953125 192.69921875 308.4765625 C193.8506788 300.76494932 201.22057866 295.35316123 206.51953125 290.2109375 C208.37997395 288.38063175 210.23998745 286.54988966 212.09960938 284.71875 C215.02785963 281.84415363 217.96153544 278.97525318 220.90307617 276.11425781 C223.74668257 273.34723207 226.57051253 270.56045428 229.39453125 267.7734375 C230.28396927 266.91608002 231.17340729 266.05872253 232.08979797 265.17538452 C232.89781357 264.37420197 233.70582916 263.57301941 234.53833008 262.74755859 C235.25684647 262.04617767 235.97536285 261.34479675 236.71565247 260.62216187 C238.33420126 258.75533743 238.33420126 258.75533743 238.05586243 256.59333801 C236.94591098 254.24631061 235.67405296 252.82697627 233.81787109 251.0090332 C233.1197934 250.31763748 232.4217157 249.62624176 231.70248413 248.91389465 C230.56198105 247.80602852 230.56198105 247.80602852 229.3984375 246.67578125 C228.61739655 245.90372849 227.83635559 245.13167572 227.03164673 244.33622742 C224.52811277 241.86274435 222.01498361 239.39933661 219.5 236.9375 C217.00722269 234.49276285 214.51683235 232.04577565 212.03262329 229.59233093 C210.48732807 228.06656824 208.9371372 226.54574171 207.38119507 225.03083801 C193.01196709 210.85869622 193.01196709 210.85869622 192.87109375 202.33227539 C192.93661794 195.34361314 194.40176784 189.03547992 196.1875 182.30859375 C196.49824463 181.08970963 196.80898926 179.8708255 197.12915039 178.61500549 C197.9476409 175.41274871 198.77789821 172.21388481 199.61486816 169.01641846 C200.79772595 164.4858099 201.95869967 159.94954485 203.12084961 155.41358948 C203.73897584 153.00614046 204.36202733 150.59994957 204.99047852 148.19517517 C205.27076904 147.11297195 205.55105957 146.03076874 205.83984375 144.91577148 C206.21290649 143.48780495 206.21290649 143.48780495 206.59350586 142.0309906 C207.23285207 139.54743663 207.23285207 139.54743663 207.125 136.625 C206.39611572 136.4391333 205.66723145 136.2532666 204.91625977 136.06176758 C179.85978473 129.65802957 179.85978473 129.65802957 168.95019531 126.33154297 C165.56854953 125.30959844 162.18960759 124.37865061 158.75 123.5703125 C158.02707764 123.39975342 157.30415527 123.22919434 156.55932617 123.0534668 C154.5800014 122.59547323 152.59676163 122.1544916 150.61328125 121.71484375 C146.10329896 120.30578993 142.51606844 118.92919831 139.98095703 114.72998047 C137.36182083 109.09577761 135.57682952 103.13351963 133.8125 97.1875 C133.51762695 96.2082959 133.22275391 95.2290918 132.91894531 94.22021484 C130.28014842 85.35860434 127.86502634 76.43837712 125.5222168 67.49438477 C123.93117458 61.45032128 122.17176432 55.53102475 120.125 49.625 C114.57644396 50.44647453 109.17110104 51.74872561 103.72265625 53.05859375 C102.22876625 53.41559105 102.22876625 53.41559105 100.70469666 53.77980042 C98.6040814 54.28230142 96.50370864 54.78581707 94.40356445 55.2902832 C91.202629 56.05886734 88.00079584 56.82361977 84.79882812 57.58789062 C82.75254939 58.07789631 80.70632365 58.56812337 78.66015625 59.05859375 C77.70891373 59.2857457 76.7576712 59.51289764 75.77760315 59.74693298 C71.88223756 60.68439376 68.00505191 61.63602366 64.16015625 62.7644043 C61.02076282 63.65455567 58.31961801 63.95708672 55.0625 64 C54.08152344 64.02835938 53.10054688 64.05671875 52.08984375 64.0859375 C44.30970618 62.87637725 38.9044297 55.61474893 33.67578125 50.265625 C31.84060662 48.41004565 30.00531676 46.55458024 28.16992188 44.69921875 C25.28933352 41.77708889 22.41329834 38.85050054 19.53881836 35.92236328 C16.75885153 33.09163337 13.96713886 30.27262336 11.17578125 27.453125 C10.31326248 26.56884827 9.45074371 25.68457153 8.56208801 24.77349854 C7.36020088 23.56158844 7.36020088 23.56158844 6.1340332 22.32519531 C5.43043167 21.60889954 4.72683014 20.89260376 4.00190735 20.15460205 C1.44844293 18.07363391 -0.02361087 17.94262044 -2.6245575 20.0272522 Z " fill="#010000" transform="translate(255.875,-0.625)"/>
<path d="M0 0 C1.21171875 0.20625 2.4234375 0.4125 3.671875 0.625 C55.00715005 10.15559959 98.83753114 38.6978987 128.43505859 81.68164062 C139.88506997 98.64409117 148.25421659 117.06970717 153.43530273 136.87841797 C153.85219891 138.44470752 154.28974496 140.00553475 154.73852539 141.56298828 C162.66473601 169.34765602 161.03003779 197.8722864 156 226 C155.8664209 226.77601563 155.7328418 227.55203125 155.59521484 228.3515625 C149.25821066 263.50624165 127.92725051 296.19166303 103 321 C102.50854492 321.4940332 102.01708984 321.98806641 101.51074219 322.49707031 C82.24818498 341.65400692 58.40029258 354.872275 33 364 C32.31518555 364.24975586 31.63037109 364.49951172 30.92480469 364.75683594 C15.77684869 370.18780375 -0.91033854 373.55665686 -17 374 C-17.81065918 374.02578125 -18.62131836 374.0515625 -19.45654297 374.078125 C-71.11089612 375.52477238 -119.33473299 358.09109892 -157.19506836 322.65966797 C-179.59727476 301.29307027 -195.5635192 276.14505048 -206 247 C-206.33507568 246.07517822 -206.67015137 245.15035645 -207.01538086 244.19750977 C-209.57535581 236.86997988 -211.28475897 229.56462246 -212.6875 221.9375 C-212.89955078 220.84373047 -213.11160156 219.74996094 -213.33007812 218.62304688 C-222.0828119 172.20870784 -211.7482417 123.23472164 -186.0625 83.75 C-178.46405273 72.75777983 -170.200206 62.67311378 -161 53 C-160.41992188 52.36707031 -159.83984375 51.73414063 -159.2421875 51.08203125 C-132.65854331 22.96214632 -94.41295425 6.58796632 -57 0 C-56.32098633 -0.12149414 -55.64197266 -0.24298828 -54.94238281 -0.36816406 C-36.9866041 -3.45445748 -17.92720686 -3.10427824 0 0 Z M-156.0625 72.1875 C-180.65222479 100.00537343 -197.06159751 136.74228885 -199 174 C-199.04382813 174.83225098 -199.08765625 175.66450195 -199.1328125 176.52197266 C-201.15121195 222.76855012 -185.20739734 266.84285104 -154.44384766 301.23413086 C-127.275123 330.82910629 -87.7102282 353.63275685 -46.90304565 356.12823486 C-41.33222988 356.36256069 -35.76249532 356.38889085 -30.1875 356.375 C-29.32827942 356.37412384 -28.46905884 356.37324768 -27.58380127 356.37234497 C7.16005061 356.25575486 41.82627714 347.18170405 70 326 C71.03769531 325.24332031 72.07539063 324.48664063 73.14453125 323.70703125 C103.8186828 301.02251119 124.74450275 270.42292649 136 234 C136.26143799 233.16992432 136.52287598 232.33984863 136.79223633 231.48461914 C141.60965365 215.90060916 142.30563331 200.46441586 142.375 184.25 C142.38276459 183.42005524 142.39052917 182.59011047 142.39852905 181.73501587 C142.48172853 170.43702869 141.50350065 160.03129316 139 149 C138.81195801 148.11296387 138.62391602 147.22592773 138.43017578 146.31201172 C131.78503776 115.87403805 115.64287414 89.88699333 95 67 C93.98679687 65.87658203 93.98679687 65.87658203 92.953125 64.73046875 C63.81648984 34.16190494 19.45506084 16.24967266 -22.33984375 14.77734375 C-74.26397835 13.62702719 -120.63975834 34.84083947 -156.0625 72.1875 Z " fill="#040200" transform="translate(284,70)"/>
<path d="M0 0 C5.69200293 1.24364354 11.35355678 2.56272354 17 4 C16.03011152 11.85289923 14.19854616 19.39361369 12.1796875 27.03125 C11.91536926 28.03486572 11.65105103 29.03848145 11.37872314 30.07250977 C10.26797133 34.27546171 9.15163689 38.47674266 8.01708984 42.67333984 C7.18299855 45.76844688 6.36767051 48.86804152 5.5546875 51.96875 C5.29847626 52.89723755 5.04226501 53.8257251 4.77828979 54.78234863 C2.77273071 62.51431235 1.00965126 70.97068642 4.66918945 78.37915039 C5.82294067 79.67647095 5.82294067 79.67647095 7 81 C7.81750732 81.95704834 8.63501465 82.91409668 9.47729492 83.90014648 C10.4103925 84.91633662 11.34926255 85.92724784 12.29296875 86.93359375 C12.80901169 87.48840927 13.32505463 88.04322479 13.85673523 88.61485291 C17.98280398 93.00900442 22.24388265 97.25646217 26.55078125 101.47265625 C27.50463211 102.40783585 27.50463211 102.40783585 28.47775269 103.36190796 C31.09307593 105.92260175 33.70989562 108.4813267 36.34448242 111.0222168 C38.29956331 112.91115988 40.23871698 114.81526618 42.17578125 116.72265625 C43.0785656 117.58202538 43.0785656 117.58202538 43.99958801 118.45875549 C45.6418457 120.09008789 45.6418457 120.09008789 48 123 C47.78828681 126.8085026 45.69107761 128.66297773 43.06274414 131.24609375 C42.22840347 132.07375244 41.39406281 132.90141113 40.53443909 133.75415039 C39.17354408 135.08240845 39.17354408 135.08240845 37.78515625 136.4375 C36.37031383 137.83861042 34.95547667 139.23972619 33.54095364 140.64115906 C31.55788402 142.60237767 29.56819529 144.55681087 27.57830811 146.5111084 C24.09847893 149.92914556 20.62320348 153.35174798 17.15684509 156.78344727 C15.31112041 158.60937158 13.46047675 160.43033945 11.60450745 162.24584961 C10.76701462 163.0735083 9.92952179 163.90116699 9.06665039 164.75390625 C8.32798233 165.47908447 7.58931427 166.2042627 6.82826233 166.95141602 C2.89318139 171.36070874 2.59034508 174.99798133 2.70166016 180.73974609 C3.21815302 186.38397337 4.66861319 191.79382076 6.13424683 197.25201416 C6.88854591 200.0612571 7.61372649 202.87777066 8.34059143 205.69421387 C8.7062003 207.11003412 9.07324737 208.52548379 9.4417572 209.94055176 C11.05372661 216.14331067 12.53022944 222.37256663 13.9375 228.625 C14.13625732 229.49938721 14.33501465 230.37377441 14.53979492 231.2746582 C15.49132044 235.51618984 16.28358958 239.7015375 17 244 C11.06 245.65 5.12 247.3 -1 249 C-0.94585937 247.58219238 -0.89171875 246.16438477 -0.8359375 244.70361328 C-0.84220258 238.75922266 -2.08879684 233.45691748 -3.625 227.7421875 C-3.89135254 226.71312286 -4.15770508 225.68405823 -4.43212891 224.62380981 C-5.2767737 221.37112949 -6.13807198 218.12313816 -7 214.875 C-7.57923583 212.65653974 -8.15737175 210.43779198 -8.734375 208.21875 C-10.1435526 202.80911161 -11.56639089 197.40321204 -13 192 C-13.66 192.33 -14.32 192.66 -15 193 C-14.31566159 188.96917156 -13.0835066 185.33793765 -11.6875 181.5 C-8.35932576 171.89078975 -6.65034551 162.01103943 -5 152 C-4.87995605 151.30825684 -4.75991211 150.61651367 -4.63623047 149.90380859 C0.02387895 122.54736894 -3.35235769 94.8156864 -11.26977539 68.44921875 C-11.51074951 67.64097656 -11.75172363 66.83273438 -12 66 C-12.41282227 64.98147949 -12.82564453 63.96295898 -13.25097656 62.91357422 C-14.31500569 57.35412609 -12.90933391 53.07105206 -11.38671875 47.6953125 C-11.09771194 46.61675995 -10.80870514 45.5382074 -10.51094055 44.42697144 C-9.58667992 40.98814185 -8.63845627 37.55653378 -7.6875 34.125 C-6.75124155 30.69968772 -5.82023059 27.27308171 -4.89619446 23.8444519 C-4.32101481 21.71526018 -3.73823803 19.58810123 -3.14665222 17.46340942 C-1.55251587 11.61795181 -0.49867662 6.04113341 0 0 Z " fill="#F07900" transform="translate(446,132)"/>
<path d="M0 0 C0.99 0.495 0.99 0.495 2 1 C1.34515625 1.680625 0.6903125 2.36125 0.015625 3.0625 C-18.20321968 22.28167449 -31.62849574 44.23812585 -41 69 C-41.46921875 70.21300781 -41.9384375 71.42601562 -42.421875 72.67578125 C-52.84785139 101.60464783 -54.48154422 132.48270066 -52.26831055 162.88671875 C-51.98243576 167.11937234 -52.24216737 170.83813227 -53 175 C-52.03394425 177.74954328 -51.61984486 178.69007757 -49 180 C-48.26318565 182.99637836 -47.61849305 185.9789411 -47 189 C-39.88396172 220.87885931 -23.43076473 251.23061738 0.0625 274 C2 276 2 276 2 278 C-27.28612083 264.33750167 -49.22657049 228.34189049 -60.1484375 199.265625 C-75.89847009 155.46646894 -74.63236025 109.23068319 -55.28515625 66.77734375 C-47.06672793 49.3368939 -35.8669077 34.2656894 -23 20 C-22.32453125 19.25105469 -21.6490625 18.50210938 -20.953125 17.73046875 C-15.7685466 12.29109269 -9.82222217 7.79224277 -3.87890625 3.22265625 C-1.8684836 1.69201173 -1.8684836 1.69201173 0 0 Z " fill="#FABE07" transform="translate(156,117)"/>
<path d="M0 0 C6.23318957 3.90656499 11.69760611 8.15839263 17 13.25 C17.69641602 13.91402832 18.39283203 14.57805664 19.11035156 15.26220703 C48.33492914 43.34807615 70.06025949 83.40673125 71.28959656 124.59898376 C71.36961107 128.67050277 71.38514646 132.74028929 71.375 136.8125 C71.37412384 137.67172058 71.37324768 138.53094116 71.37234497 139.41619873 C71.23310658 180.90923996 57.47269246 219.58985325 30 251 C29.33145996 251.76908691 29.33145996 251.76908691 28.64941406 252.55371094 C11.03596496 272.68164008 11.03596496 272.68164008 1 277 C1.99366007 273.35657974 3.5566184 271.29965343 6.234375 268.76171875 C32.66870573 242.83567537 47.1645693 204.03566383 52 168 C52.10296387 167.2884375 52.20592773 166.576875 52.31201172 165.84375 C59.28376664 117.20667299 48.00848195 63.41984757 18.30273438 23.73242188 C15.08508341 19.61282648 11.755667 15.59362756 8.36474609 11.6159668 C7.12742326 10.15087917 5.92666789 8.65510194 4.73046875 7.15625 C3.07809782 5.00385258 3.07809782 5.00385258 1.25 3.3125 C0 2 0 2 0 0 Z " fill="#FBBE07" transform="translate(355,117)"/>
<path d="M0 0 C1.2684375 -0.00478363 2.536875 -0.00956726 3.84375 -0.01449585 C6.52430824 -0.01789684 9.20258142 -0.01121028 11.8828125 0.01220703 C15.30975855 0.04069708 18.73474681 0.02428549 22.16162109 -0.00565529 C25.44114993 -0.02811794 28.72044556 -0.01236811 32 0 C33.2271875 -0.01012115 34.454375 -0.02024231 35.71875 -0.03067017 C44.16935087 0.08568321 44.16935087 0.08568321 48.27099609 2.94165039 C49.93968021 5.56908566 50.63920959 6.83087572 50.6640625 9.88671875 C50.6741333 10.66700439 50.6842041 11.44729004 50.69458008 12.2512207 C50.67161865 13.0680835 50.64865723 13.88494629 50.625 14.7265625 C50.60505981 15.99149536 50.60505981 15.99149536 50.5847168 17.28198242 C50.21613832 27.04324687 47.15248374 35.83669165 40 42.6640625 C30.44140276 50.22506227 21.19642728 52.98460025 9 51.6640625 C-0.82226768 49.21541267 -8.51860331 43.61614395 -13.74609375 34.984375 C-17.43871814 28.15129436 -18.31657619 22.12634016 -18.5 14.4140625 C-18.53077637 13.63297119 -18.56155273 12.85187988 -18.59326172 12.04711914 C-18.59342285 11.2968042 -18.59358398 10.54648926 -18.59375 9.7734375 C-18.60083984 9.10280273 -18.60792969 8.43216797 -18.61523438 7.74121094 C-15.96548229 -1.20485681 -7.65276627 -0.06311573 0 0 Z " fill="#020100" transform="translate(240,187.3359375)"/>
<path d="M0 0 C3.7793119 0.70862098 5.19074006 1.94052406 8 4.5625 C9.52453378 6.90215859 10.90622144 9.18905574 12.25 11.625 C16.2215761 18.5271001 20.75827212 24.55392675 26 30.5625 C26.57234375 31.26761719 27.1446875 31.97273438 27.734375 32.69921875 C32.49842599 38.47279484 38.09848215 42.99124232 44 47.5625 C44.81984375 48.22121094 45.6396875 48.87992187 46.484375 49.55859375 C59.63997714 59.71128671 75.08187057 66.94155861 91 71.5625 C91.8859082 71.82450195 92.77181641 72.08650391 93.68457031 72.35644531 C102.58033133 74.80182322 111.27640896 75.24844083 120.4609375 75.55859375 C130.14706691 76.07126051 130.14706691 76.07126051 133.78125 78.87890625 C136.78585876 82.5130017 136.78585876 82.5130017 136.625 85.625 C136 89.5625 136 89.5625 134.57421875 91.78515625 C130.61405878 94.51940934 126.88477276 94.07268229 122.1875 93.9375 C121.24479248 93.92098389 120.30208496 93.90446777 119.33081055 93.88745117 C98.01186475 93.35969165 79.05634274 87.8835846 60 78.5625 C59.32275879 78.2334668 58.64551758 77.90443359 57.94775391 77.56542969 C48.89467599 73.11105777 40.84215843 67.96137831 33 61.5625 C32.43394043 61.10327148 31.86788086 60.64404297 31.28466797 60.17089844 C16.57938042 48.16740137 -5.33098403 28.57659585 -8.625 8.8125 C-7.62928727 3.63479382 -5.22909404 0.98045513 0 0 Z " fill="#F5F4F0" transform="translate(128,315.4375)"/>
<path d="M0 0 C4.96269233 4.16246316 9.63968338 8.4918724 14.2109375 13.078125 C14.86454254 13.73077332 15.51814758 14.38342163 16.19155884 15.05584717 C17.55910975 16.42272261 18.92541889 17.79084149 20.29052734 19.16015625 C22.38655909 21.26158888 24.48793358 23.35757388 26.58984375 25.453125 C27.92219614 26.78613743 29.2542387 28.11945963 30.5859375 29.453125 C31.52957657 30.39372772 31.52957657 30.39372772 32.49227905 31.35333252 C37.73874535 36.62841308 37.73874535 36.62841308 38.5 40.625 C37.95133808 44.32846794 37.3521148 45.07441657 34.91943359 47.75195312 C34.28205261 48.45473389 33.64467163 49.15751465 32.98797607 49.8815918 C29.97558336 53.09162914 26.90687024 56.23617193 23.7890625 59.34375 C23.13545746 59.99831177 22.48185242 60.65287354 21.80844116 61.32727051 C20.44334531 62.69304063 19.07701096 64.05757393 17.70947266 65.42089844 C15.60591462 67.51903621 13.50782954 69.62254298 11.41015625 71.7265625 C10.07844606 73.05761296 8.74642628 74.38835377 7.4140625 75.71875 C6.47042343 76.66542542 6.47042343 76.66542542 5.50772095 77.63122559 C1.11498854 82 1.11498854 82 0 82 C-0.1411406 76.86601075 0.20131789 72.15848636 1.06787109 67.10205078 C4.48563815 47.01639378 3.51157426 27.32167139 0.27539062 7.28222656 C-0.01993832 4.83476646 -0.04570915 2.46285254 0 0 Z " fill="#FD9700" transform="translate(440,215)"/>
<path d="M0 0 C5.60306512 3.86079816 9.3067897 9.13569139 10.67578125 15.84375 C11.3085661 20.71532652 11.41694837 23.74322913 8.61328125 27.90625 C4.87547723 30.3716101 3.06929545 30.70676172 -1.32421875 29.84375 C-6.25683273 25.56881788 -7.38260088 21.16804916 -8.32421875 14.84375 C-11.3513325 14.17765308 -14.21919457 13.73955456 -17.32421875 13.84375 C-21.14372521 16.36299894 -22.44128967 18.63419801 -23.38671875 22.96875 C-24.32421875 26.84375 -24.32421875 26.84375 -26.01171875 28.84375 C-29.33348258 30.28018841 -31.74653785 30.29096011 -35.32421875 29.84375 C-37.68919314 27.97666495 -38.9845259 26.52313569 -40.32421875 23.84375 C-41.08569112 16.7366745 -39.31184721 11.75776902 -35.32421875 5.84375 C-25.2424355 -5.41916267 -13.11300327 -7.21130141 0 0 Z " fill="#040400" transform="translate(330.32421875,149.15625)"/>
<path d="M0 0 C6.85304298 3.95277906 11.11316182 9.73723349 13.2890625 17.3203125 C13.8865559 21.60108801 13.92710527 25.71035924 11.2890625 29.3203125 C7.53858768 31.82062904 5.73049984 31.85634804 1.2890625 31.3203125 C-2.38756275 28.70582343 -3.85150639 26.50295615 -4.7734375 22.1953125 C-5.3775376 18.38987131 -5.3775376 18.38987131 -7.4609375 16.3203125 C-10.47710482 14.97979369 -12.44334844 14.8437891 -15.7109375 15.3203125 C-19.02939204 17.53261552 -19.88423726 19.56241041 -20.6484375 23.3203125 C-21.32291822 26.46397915 -21.69957489 27.30768738 -23.9609375 29.8203125 C-27.30116167 31.64225296 -28.96431888 32.02280349 -32.7109375 31.3203125 C-35.66492354 29.32958277 -37.40182828 27.8541941 -38.125 24.265625 C-38.39032405 17.29483854 -36.43012332 11.82541183 -32.5234375 6.1328125 C-23.28139474 -3.10923026 -12.07995286 -5.48391511 0 0 Z " fill="#040300" transform="translate(208.7109375,147.6796875)"/>
<path d="M0 0 C3.7874306 12.10516403 7.38735934 24.23534017 10.625 36.5 C13.0835435 45.80435683 15.77737367 54.93136971 19 64 C19.33 64.99 19.66 65.98 20 67 C3.09393971 63.80247552 3.09393971 63.80247552 0 60 C-0.87207031 57.82128906 -0.87207031 57.82128906 -1.578125 55.265625 C-1.84858643 54.30986572 -2.11904785 53.35410645 -2.39770508 52.36938477 C-2.81959106 50.82528931 -2.81959106 50.82528931 -3.25 49.25 C-3.86185072 47.07641972 -4.47517141 44.90325278 -5.08984375 42.73046875 C-5.4029248 41.61720215 -5.71600586 40.50393555 -6.03857422 39.35693359 C-7.82321417 33.12564884 -9.75726247 26.93949486 -11.69042969 20.75292969 C-13.40219077 15.20633989 -14.81477107 9.68331728 -16 4 C-14.08594633 3.32586789 -12.16863974 2.6609668 -10.25 2 C-9.18265625 1.62875 -8.1153125 1.2575 -7.015625 0.875 C-4 0 -4 0 0 0 Z " fill="#F17A00" transform="translate(376,49)"/>
<path d="M0 0 C-0.60070312 1.08925781 -1.20140625 2.17851562 -1.8203125 3.30078125 C-4.36868771 8.40761758 -5.59983299 13.64937574 -6.875 19.1875 C-8.80949614 27.26397473 -10.86319332 35.27657953 -13.1875 43.25 C-15.2876664 50.46695999 -17.27298154 57.68289549 -19 65 C-24.50808397 64.40984815 -29.64878069 63.43336231 -35 62 C-34.28193947 55.83271739 -32.8131579 49.95590547 -31.234375 43.95703125 C-30.95909973 42.91101242 -30.68382446 41.86499359 -30.40020752 40.78727722 C-29.81768104 38.58545823 -29.23256739 36.38432227 -28.64501953 34.18383789 C-28.04747552 31.93302358 -27.45797312 29.68005926 -26.87646484 27.42504883 C-26.03432442 24.15991204 -25.16841543 20.90192697 -24.296875 17.64453125 C-23.91375153 16.13352592 -23.91375153 16.13352592 -23.52288818 14.59199524 C-22.36082569 10.34469466 -21.60655609 7.62982337 -18.51147461 4.41601562 C-15.3572097 2.63758299 -12.30457554 1.64055328 -8.8125 0.6875 C-7.58144531 0.34074219 -6.35039062 -0.00601562 -5.08203125 -0.36328125 C-2 -1 -2 -1 0 0 Z " fill="#F27A00" transform="translate(395,398)"/>
<path d="M0 0 C11.22 0 22.44 0 34 0 C32.91346446 7.60574875 31.52578667 10.13502905 26 15 C21.67382891 17.16308555 17.79953094 17.42852955 13 17 C7.77305673 15.1865707 3.73667543 11.81369619 1 7 C0.67 4.69 0.34 2.38 0 0 Z " fill="#EA304A" transform="translate(239,205)"/>
<path d="M0 0 C2.92786288 2.07987128 5.46121164 4.46642475 8 7 C8.80244141 7.78503906 8.80244141 7.78503906 9.62109375 8.5859375 C11.89639837 11.02238267 12.95762119 12.76927091 13.5625 16.0625 C12.84171094 19.82662066 11.85564095 21.43724531 9 24 C5.6875 25.125 5.6875 25.125 2 25 C-0.65406584 23.68329419 -2.93311342 22.12970988 -5 20 C-5 19.34 -5 18.68 -5 18 C-5.99 17.67 -6.98 17.34 -8 17 C-8 16.34 -8 15.68 -8 15 C-8.66 15 -9.32 15 -10 15 C-12.44521115 11.33218328 -12.72237759 8.26546767 -12 4 C-8.38143521 -0.70413422 -5.68622614 -1.68480774 0 0 Z " fill="#E9245F" transform="translate(354,197)"/>
<path d="M0 0 C2.9375 2.125 2.9375 2.125 5 5 C5.3723653 9.93384025 3.83339289 12.54963733 0.75 16.1875 C-7.14860116 24.55644907 -7.14860116 24.55644907 -12.8125 25.4375 C-16.47073035 24.93538995 -17.79332221 23.7286364 -20.21484375 20.99609375 C-21.529357 17.65422177 -20.93009471 15.42609107 -20 12 C-18.2843825 9.57434976 -16.24625774 7.62868016 -14.0625 5.625 C-13.51142578 5.09261719 -12.96035156 4.56023437 -12.39257812 4.01171875 C-7.89965614 -0.27921282 -6.14910042 -1.68798835 0 0 Z " fill="#E92360" transform="translate(200,197)"/>
<path d="M0 0 C2.375 1.5625 2.375 1.5625 4 4 C4.60006355 7.32762513 4.87854645 8.87237464 4 12 C1.98973705 14.72901618 -0.43009252 16.80864735 -3 19 C-3.94674675 19.94919946 -4.88556895 20.90644031 -5.8125 21.875 C-8.34241499 24.3326317 -9.34428609 24.89800006 -12.8125 25.4375 C-16 25 -16 25 -18.875 22.375 C-21 19 -21 19 -21.75 16.125 C-20.07746898 9.15612076 -13.49918421 4.22030416 -8 0 C-5.02898609 -1.48550695 -3.16565278 -0.82306972 0 0 Z " fill="#E92260" transform="translate(166,197)"/>
<path d="M0 0 C3.51143558 0.83969112 5.63993134 2.88438789 7.9765625 5.47265625 C8.94722656 6.52453125 8.94722656 6.52453125 9.9375 7.59765625 C14.89376514 13.39629056 14.89376514 13.39629056 15.2265625 17.72265625 C13.6320297 21.23062842 12.05720753 23.14505778 8.9765625 25.47265625 C5.21542351 25.98717595 3.53029589 25.84235955 0.34375 23.71484375 C-10.34530767 13.56191436 -10.34530767 13.56191436 -11.5859375 7.91015625 C-10.20696939 1.93462776 -5.95282439 -0.43475684 0 0 Z " fill="#E9245F" transform="translate(318.0234375,196.52734375)"/>
<path d="M0 0 C2.5 1.5 2.5 1.5 4 4 C4.79126072 8.02224201 4.66872394 10.95679065 2.4375 14.4375 C-0.86357636 16.55357459 -3.07466612 17.06886551 -7 17 C-10.28673608 14.64212411 -11.68189978 12.83059502 -13.125 9.0625 C-12.98260219 5.57375364 -12.06765847 3.69192799 -9.6640625 1.140625 C-6.37803469 -1.11176965 -3.87245818 -0.6146759 0 0 Z " fill="#F5F3EC" transform="translate(115,282)"/>
<path d="M0 0 C0.66 0.33 1.32 0.66 2 1 C-1.63 4.63 -5.26 8.26 -9 12 C-9 8.47601214 -8.44884893 7.98495633 -6.1875 5.4375 C-5.40439453 4.53837891 -5.40439453 4.53837891 -4.60546875 3.62109375 C-3 2 -3 2 0 0 Z " fill="#F9CF02" transform="translate(162,113)"/>
</svg>
